<svg width="11" height="11" viewBox="0 0 11 11" fill="none" xmlns="http://www.w3.org/2000/svg">
<path d="M0.530398 4.66405C0.835954 4.66405 1.05503 4.43344 1.05503 4.12788V3.64361L0.939727 1.63155L2.45597 3.22851L4.23166 5.01572C4.32966 5.1195 4.4565 5.16562 4.59486 5.16562C4.92348 5.16562 5.16562 4.95231 5.16562 4.62945C5.16562 4.47379 5.11373 4.33543 5.00996 4.23166L3.22851 2.45597L1.63155 0.939727L3.64937 1.05503H4.12788C4.43344 1.05503 4.66981 0.841719 4.66981 0.530398C4.66981 0.219078 4.4392 0 4.12788 0H0.928197C0.340147 0 0 0.340147 0 0.928197V4.12788C0 4.42767 0.224843 4.66405 0.530398 4.66405ZM6.85482 11H10.0545C10.6426 11 10.9885 10.6599 10.9885 10.0718V6.87212C10.9885 6.57233 10.7636 6.33595 10.4523 6.33595C10.1525 6.33595 9.92767 6.56656 9.92767 6.87212V7.35639L10.0487 9.36845L8.52673 7.77149L6.75681 5.98428C6.6588 5.8805 6.52621 5.83438 6.38784 5.83438C6.06499 5.83438 5.81709 6.04769 5.81709 6.37054C5.81709 6.52621 5.87474 6.66457 5.97851 6.76834L7.75419 8.54402L9.35692 10.0603L7.3391 9.94497H6.85482C6.54927 9.94497 6.31289 10.1583 6.31289 10.4696C6.31289 10.7809 6.54927 11 6.85482 11Z" fill="white" fill-opacity="0.8"/>
</svg>
