<svg width="9" height="9" viewBox="0 0 9 9" fill="none" xmlns="http://www.w3.org/2000/svg">
<path d="M4.91129 0.410555C4.91129 0.189177 4.72177 0 4.5 0C4.27823 0 4.09274 0.189177 4.09274 0.410555V1.22764C4.09274 1.44902 4.27823 1.63417 4.5 1.63417C4.72177 1.63417 4.91129 1.44902 4.91129 1.22764V0.410555ZM6.52419 1.90787C6.36694 2.06485 6.36694 2.32648 6.52823 2.48345C6.68145 2.64043 6.94758 2.64043 7.10484 2.47943L7.68548 1.89982C7.84274 1.74687 7.84274 1.47719 7.68548 1.32021C7.52823 1.16726 7.26613 1.16726 7.10887 1.32424L6.52419 1.90787ZM1.89516 2.47943C2.04839 2.64043 2.31452 2.64043 2.47177 2.48345C2.62903 2.3305 2.62903 2.06082 2.47581 1.90787L1.89516 1.32424C1.74194 1.17129 1.47581 1.16726 1.31855 1.32021C1.16129 1.47719 1.16129 1.74687 1.31452 1.8958L1.89516 2.47943ZM4.5 2.3788C3.33871 2.3788 2.375 3.33676 2.375 4.5C2.375 5.66324 3.33871 6.6212 4.5 6.6212C5.66129 6.6212 6.62097 5.66324 6.62097 4.5C6.62097 3.33676 5.66129 2.3788 4.5 2.3788ZM4.5 3.13953C5.24194 3.13953 5.8629 3.75537 5.8629 4.5C5.8629 5.24463 5.24194 5.86047 4.5 5.86047C3.75403 5.86047 3.13306 5.24463 3.13306 4.5C3.13306 3.75537 3.75403 3.13953 4.5 3.13953ZM8.59274 4.91055C8.81452 4.91055 9 4.72138 9 4.5C9 4.27862 8.81452 4.09347 8.59274 4.09347H7.77419C7.55242 4.09347 7.36694 4.27862 7.36694 4.5C7.36694 4.72138 7.55242 4.91055 7.77419 4.91055H8.59274ZM0.41129 4.09347C0.185484 4.09347 0 4.27862 0 4.5C0 4.72138 0.185484 4.91055 0.41129 4.91055H1.22581C1.44758 4.91055 1.6371 4.72138 1.6371 4.5C1.6371 4.27862 1.44758 4.09347 1.22581 4.09347H0.41129ZM7.10081 6.52057C6.94355 6.3636 6.68145 6.36762 6.52419 6.5246C6.36694 6.67755 6.36694 6.93918 6.52823 7.10018L7.1129 7.67979C7.26613 7.83676 7.53226 7.83274 7.68952 7.67576C7.84274 7.51878 7.84274 7.25716 7.68548 7.10018L7.10081 6.52057ZM1.31452 7.09615C1.15726 7.25313 1.15323 7.51878 1.30645 7.67174C1.46371 7.82871 1.73387 7.83274 1.8871 7.67979L2.47177 7.10018C2.62903 6.9432 2.62903 6.67755 2.47581 6.5246C2.31855 6.36762 2.05242 6.36762 1.89516 6.52057L1.31452 7.09615ZM4.91129 7.77236C4.91129 7.55098 4.72177 7.36583 4.5 7.36583C4.27823 7.36583 4.09274 7.55098 4.09274 7.77236V8.58945C4.09274 8.81082 4.27823 9 4.5 9C4.72177 9 4.91129 8.81082 4.91129 8.58945V7.77236Z" fill="white" fill-opacity="0.8"/>
</svg>
