<svg width="64" height="64" viewBox="0 0 64 64" fill="none" xmlns="http://www.w3.org/2000/svg">
<circle cx="32" cy="31" r="22" fill="white" fill-opacity="0.8"/>
<path fill-rule="evenodd" clip-rule="evenodd" d="M54 30.9995C54 43.1498 44.1503 52.9995 32 52.9995C19.8497 52.9995 10 43.1498 10 30.9995C10 18.8492 19.8497 8.99951 32 8.99951C44.1503 8.99951 54 18.8492 54 30.9995ZM56 30.9995C56 44.2543 45.2548 54.9995 32 54.9995C18.7452 54.9995 8 44.2543 8 30.9995C8 17.7447 18.7452 6.99951 32 6.99951C45.2548 6.99951 56 17.7447 56 30.9995ZM43 30.9995L27 20.9995V40.9995L43 30.9995Z" fill="black" fill-opacity="0.8"/>
</svg>
