<svg width="18" height="23" viewBox="0 0 18 23" fill="none" xmlns="http://www.w3.org/2000/svg">
<g clip-path="url(#clip0)">
<path d="M8.31184 22.8105C7.42893 22.8166 6.54961 22.6975 5.70014 22.4568C4.81592 22.2229 3.9962 21.7917 3.30262 21.1955C2.60905 20.5993 2.05965 19.8536 1.69575 19.0145C1.29077 18.1299 0.988778 17.2016 0.795707 16.2481C0.223938 13.7209 0.0544795 11.1193 0.29358 8.53928C0.391506 7.16049 0.720305 5.80793 1.26626 4.53804L1.34205 4.37383C1.98008 3.08503 2.98847 2.01615 4.23797 1.30421C6.02506 0.265486 8.13545 -0.0689786 10.1561 0.366275C10.744 0.498292 11.315 0.696405 11.8583 0.95683C13.0623 1.54095 14.0874 2.43742 14.8269 3.55274C15.5538 4.62224 15.9563 5.87901 15.9859 7.17185C15.953 7.87826 15.7173 8.56025 15.3069 9.13615C14.8187 9.87539 14.2394 10.5502 13.5826 11.1447C12.2974 12.337 10.8595 13.3533 9.30663 14.1669L9.10451 14.2711L9.30978 14.369C9.42688 14.4218 9.55399 14.4487 9.68243 14.448C10.2825 14.448 11.0562 13.949 11.9499 13.3742C13.0047 12.6984 14.2016 11.9279 15.2658 11.9279C15.5322 11.9251 15.7962 11.9785 16.0405 12.0846C16.2848 12.1907 16.504 12.3471 16.6838 12.5437C16.8478 12.7933 16.9131 13.095 16.867 13.39C16.8322 14.3564 16.3648 15.9733 15.6227 17.7165C14.9248 19.3587 14.1574 20.6946 13.6647 21.1241C13.0163 21.6698 12.2644 22.0791 11.4541 22.3273C10.6198 22.5911 9.75446 22.744 8.88029 22.782H8.65291L8.31184 22.8105Z" fill="#F2F2F2" stroke="black" stroke-width="0.5" stroke-miterlimit="10"/>
<path d="M8.31185 22.6998H8.65608H8.8803C9.74476 22.6626 10.6006 22.5119 11.4257 22.2514C12.2219 22.0082 12.9601 21.6052 13.5953 21.0671C14.069 20.6566 14.8585 19.3018 15.5248 17.7006C16.2638 15.9669 16.7249 14.3657 16.7596 13.4152C16.8024 13.1505 16.7486 12.8793 16.608 12.6509C16.4373 12.4654 16.2298 12.3176 15.9987 12.217C15.7675 12.1164 15.5179 12.0652 15.2659 12.0667C14.23 12.0667 13.0552 12.8278 12.0068 13.4973C11.0972 14.0815 10.3141 14.5868 9.68244 14.5868C9.53873 14.5878 9.39652 14.5576 9.26558 14.4984L8.85503 14.3026L9.26242 14.0973C10.8051 13.2876 12.2334 12.2766 13.51 11.0909C14.1598 10.5022 14.7337 9.83496 15.2185 9.10445C15.6152 8.54897 15.8443 7.89136 15.8785 7.20963C15.8489 5.93925 15.453 4.70446 14.7385 3.65368C14.0107 2.5542 13.0006 1.67068 11.8141 1.09566C11.278 0.838858 10.7143 0.643911 10.134 0.514584C9.56482 0.387995 8.9834 0.324452 8.40028 0.325102C7.67716 0.325147 6.95721 0.420713 6.25913 0.609324C5.56974 0.792943 4.90805 1.06803 4.29167 1.42726C3.06362 2.12812 2.07366 3.18078 1.44943 4.4495C1.42417 4.49687 1.40206 4.55056 1.37364 4.61056C0.833065 5.86847 0.507473 7.2082 0.410437 8.5739C0.171546 11.1422 0.339946 13.7322 0.909408 16.2479C1.10071 17.1926 1.39951 18.1124 1.79998 18.9891C2.19207 19.8591 2.77619 20.6289 3.50848 21.2408C4.16725 21.7658 4.92577 22.1515 5.73805 22.3745C6.57802 22.614 7.44793 22.732 8.32133 22.7251L8.31185 22.6998ZM8.32133 22.9461C6.53388 22.9461 4.71485 22.504 3.37584 21.4145C1.81261 20.1513 1.11784 18.187 0.700979 16.2953C0.127644 13.7566 -0.0418139 11.1433 0.198849 8.55179C0.29843 7.16104 0.630412 5.79682 1.181 4.51582L1.25679 4.3516C2.53896 1.70201 5.42857 0.104038 8.40975 0.104038C9.62306 0.100495 10.8214 0.371482 11.9152 0.896707C14.3942 2.0936 16.068 4.61687 16.1027 7.21278C16.1375 9.80869 11.8141 13.0741 9.36348 14.3121C9.46252 14.3577 9.57024 14.3814 9.67928 14.3815C10.9583 14.3815 13.2858 11.8551 15.2627 11.8551C15.5414 11.851 15.8179 11.9051 16.0746 12.0138C16.3312 12.1226 16.5624 12.2836 16.7533 12.4867C17.7702 13.5225 15.0037 20.1197 13.731 21.2313C12.4584 22.343 10.6456 22.8103 8.88977 22.9146H8.65924L8.32133 22.9461Z" fill="#F2F2F2" stroke="black" stroke-width="0.5" stroke-miterlimit="10"/>
<path d="M9.49008 9.90991C9.12059 9.90991 8.82373 9.31936 8.82373 8.59301C8.82373 7.86666 9.12059 7.27295 9.49008 7.27295C9.85957 7.27295 10.1533 7.86351 10.1533 8.59301C10.1533 9.32252 9.85641 9.90991 9.49008 9.90991Z" fill="#BD73EA"/>
<path d="M12.531 6.78021C12.5242 7.02466 12.4456 7.2617 12.3052 7.46188C12.1647 7.66206 11.9685 7.81653 11.741 7.9061C11.5134 7.99567 11.2646 8.01639 11.0253 7.96567C10.7861 7.91495 10.5671 7.79504 10.3954 7.62084C10.2238 7.44664 10.1072 7.22584 10.06 6.98589C10.0129 6.74593 10.0373 6.49742 10.1302 6.27123C10.2232 6.04504 10.3806 5.85116 10.5828 5.71369C10.7851 5.57623 11.0232 5.50124 11.2678 5.49805C11.4337 5.50052 11.5974 5.53564 11.7498 5.60142C11.9021 5.66719 12.0399 5.76233 12.1555 5.88139C12.271 6.00045 12.362 6.14111 12.4232 6.29533C12.4843 6.44956 12.5145 6.61432 12.512 6.78021" fill="#71D1D1"/>
<path d="M10.374 9.01937C10.3806 8.94394 10.4024 8.87062 10.4381 8.80381C10.4737 8.737 10.5225 8.67808 10.5815 8.6306C10.6405 8.58311 10.7085 8.54804 10.7814 8.52747C10.8542 8.50691 10.9305 8.50128 11.0056 8.51093C11.1329 8.528 11.2508 8.58746 11.3401 8.6797C11.4295 8.77194 11.4852 8.8916 11.4983 9.01937" fill="#FF8B5C"/>
<path d="M9.07958 6.89712C9.40399 6.89712 9.66698 6.72887 9.66698 6.52131C9.66698 6.31376 9.40399 6.14551 9.07958 6.14551C8.75517 6.14551 8.49219 6.31376 8.49219 6.52131C8.49219 6.72887 8.75517 6.89712 9.07958 6.89712Z" fill="#DDADFF"/>
<path d="M10.9521 3.70445C11.0943 3.69931 11.2328 3.75049 11.3375 3.84688C11.4422 3.94327 11.5046 4.07708 11.5111 4.21921" fill="#FF8B5C"/>
<path d="M11.5082 4.21889C11.5171 4.32784 11.4938 4.43702 11.4413 4.5329C11.3888 4.62878 11.3094 4.70716 11.2128 4.75835C11.1162 4.80953 11.0067 4.83127 10.8979 4.82087C10.7891 4.81048 10.6857 4.7684 10.6006 4.69986C10.5154 4.63131 10.4522 4.5393 10.4188 4.43521C10.3854 4.33112 10.3833 4.21953 10.4126 4.11423C10.442 4.00894 10.5016 3.91457 10.5841 3.8428C10.6665 3.77103 10.7682 3.72502 10.8766 3.71045H10.9397" fill="#FF8B5C"/>
<path d="M11.5871 5.36248C11.546 5.36972 11.5039 5.36876 11.4632 5.35964C11.4225 5.35052 11.384 5.33343 11.3499 5.30935C11.3159 5.28528 11.2869 5.25469 11.2648 5.21936C11.2426 5.18403 11.2276 5.14466 11.2208 5.10352C11.2109 5.06287 11.2093 5.02066 11.2159 4.97936C11.2225 4.93807 11.2373 4.89849 11.2593 4.86294C11.2813 4.82739 11.3102 4.79657 11.3442 4.77227C11.3783 4.74798 11.4168 4.73068 11.4576 4.7214C11.5013 4.71201 11.5465 4.71201 11.5902 4.7214" fill="#00A99D"/>
<path d="M7.51609 5.39408C7.89631 5.39408 8.20454 5.15513 8.20454 4.86037C8.20454 4.56561 7.89631 4.32666 7.51609 4.32666C7.13587 4.32666 6.82764 4.56561 6.82764 4.86037C6.82764 5.15513 7.13587 5.39408 7.51609 5.39408Z" fill="#ED1C24"/>
<path d="M7.72993 6.47117C7.8622 6.37728 7.86466 6.15358 7.73543 5.97154C7.6062 5.7895 7.39422 5.71803 7.26195 5.81193C7.12968 5.90582 7.12722 6.12951 7.25645 6.31156C7.38568 6.4936 7.59766 6.56506 7.72993 6.47117Z" fill="#006837"/>
<path d="M9.6811 5.96968C10.0953 5.8176 10.2781 5.27755 10.0894 4.76344C9.90063 4.24934 9.41182 3.95586 8.99759 4.10794C8.58336 4.26002 8.40057 4.80007 8.58931 5.31417C8.77806 5.82828 9.26687 6.12176 9.6811 5.96968Z" fill="#F14B94"/>
<path d="M7.73305 8.53698C8.16959 8.3799 8.36646 7.81619 8.17277 7.2779C7.97908 6.73961 7.46818 6.43058 7.03164 6.58765C6.5951 6.74473 6.39823 7.30844 6.59192 7.84673C6.78561 8.38502 7.29651 8.69405 7.73305 8.53698Z" fill="#3FA9F5"/>
</g>
<defs>
<clipPath id="clip0">
<rect width="17.0566" height="23" fill="white"/>
</clipPath>
</defs>
</svg>
