<svg width="17" height="23" viewBox="0 0 17 23" fill="none" xmlns="http://www.w3.org/2000/svg">
<g clip-path="url(#clip0)">
<path d="M13.2654 11.5733C15.2505 13.4438 15.1741 12.6549 14.8369 15.9951C14.4838 19.4531 10.7268 22.8347 7.33885 22.8411C6.0282 22.8411 4.58076 22.1857 3.61368 21.5368C1.09736 19.8507 0.324325 17.678 0.219346 16.9972C-0.235564 14.0451 2.08352 11.5701 2.70067 10.953C2.71275 10.94 2.71946 10.923 2.71946 10.9052C2.71946 10.8875 2.71275 10.8705 2.70067 10.8575C2.28195 10.3945 1.8981 9.90116 1.55227 9.38145C0.980723 8.18904 0.775901 6.85384 0.963743 5.54494C1.28186 2.43373 4.56803 -0.0539554 8.01962 0.181453C11.9134 0.445491 14.3629 4.09432 15.2282 6.56928C17.2705 12.4354 16.9683 15.2953 14.5697 12.7535L13.2654 11.5733ZM5.4524 16.1383C5.53193 16.3546 5.79597 17.0927 6.55309 17.2072C6.74581 17.2411 6.94361 17.2325 7.13264 17.1819C7.32167 17.1314 7.49737 17.0401 7.64742 16.9145C8.09279 16.4564 7.61243 15.6993 7.21796 15.3239C6.78975 14.9626 6.26146 14.7407 5.70371 14.6877C5.68722 14.6846 5.67016 14.6866 5.65482 14.6934C5.63948 14.7002 5.62657 14.7115 5.61782 14.7259C5.49043 14.9338 5.40967 15.1669 5.38111 15.4091C5.35255 15.6513 5.37687 15.8969 5.4524 16.1288V16.1383ZM8.89763 7.69542C8.91354 7.66361 12.0279 10.9148 13.1477 11.5669C13.2272 11.6115 13.3163 11.5224 13.259 11.4556C12.5846 10.6815 11.8986 9.91695 11.2008 9.16195C10.5646 8.48118 9.86471 7.48228 8.90081 7.17689C8.80219 7.14507 8.61769 7.08463 8.53498 7.17689C8.45226 7.26914 8.61769 7.45683 8.70358 7.53318L8.89763 7.6986" fill="#F2F2F2"/>
<path d="M8.89763 7.69542C8.91354 7.66361 12.0279 10.9148 13.1477 11.5669C13.2272 11.6115 13.3163 11.5224 13.259 11.4556C12.5846 10.6815 11.8986 9.91695 11.2008 9.16195C10.5646 8.48118 9.86471 7.48228 8.90081 7.17689C8.80219 7.14507 8.61769 7.08463 8.53498 7.17689C8.45227 7.26914 8.61769 7.45683 8.70358 7.53318L8.89763 7.6986M13.2654 11.5733C15.2505 13.4438 15.1741 12.6549 14.8369 15.9951C14.4838 19.4531 10.7268 22.8347 7.33885 22.8411C6.0282 22.8411 4.58076 22.1857 3.61368 21.5368C1.09736 19.8507 0.324325 17.678 0.219346 16.9972C-0.235564 14.0451 2.08352 11.5701 2.70067 10.953C2.71275 10.94 2.71946 10.923 2.71946 10.9052C2.71946 10.8875 2.71275 10.8705 2.70067 10.8575V10.8575C2.28195 10.3945 1.8981 9.90116 1.55227 9.38145C0.980723 8.18904 0.775901 6.85384 0.963743 5.54494C1.28186 2.43373 4.56803 -0.0539554 8.01962 0.181453C11.9134 0.445491 14.3629 4.09432 15.2282 6.56928C17.2705 12.4354 16.9683 15.2953 14.5697 12.7535L13.2654 11.5733ZM5.4524 16.1383C5.53193 16.3546 5.79597 17.0927 6.55309 17.2072C6.74581 17.2411 6.94361 17.2325 7.13264 17.1819C7.32167 17.1314 7.49737 17.0401 7.64742 16.9145C8.09279 16.4564 7.61243 15.6993 7.21796 15.3239C6.78975 14.9626 6.26146 14.7407 5.70372 14.6877C5.68722 14.6846 5.67016 14.6866 5.65482 14.6934C5.63948 14.7002 5.62657 14.7115 5.61782 14.7259C5.49043 14.9338 5.40967 15.1669 5.38111 15.4091C5.35255 15.6513 5.37687 15.8969 5.4524 16.1288V16.1383Z" stroke="black" stroke-miterlimit="10"/>
<path d="M8.87095 5.41018C9.22624 4.87421 9.00498 4.10212 8.37675 3.68568C7.74853 3.26924 6.95123 3.36613 6.59594 3.9021C6.24066 4.43807 6.46191 5.21015 7.09014 5.6266C7.71836 6.04304 8.51566 5.94615 8.87095 5.41018Z" fill="#71D1D1"/>
<path d="M9.01719 2.73618C9.15118 2.51744 9.02661 2.19728 8.73896 2.02108C8.45131 1.84487 8.1095 1.87935 7.97552 2.09809C7.84153 2.31682 7.9661 2.63698 8.25375 2.81319C8.5414 2.98939 8.8832 2.95491 9.01719 2.73618Z" fill="#FF8B5C"/>
<path d="M11.5266 2.56683C11.6368 2.29491 11.1572 1.84392 10.4554 1.55952C9.75362 1.27512 9.09537 1.26501 8.98517 1.53693C8.87498 1.80886 9.35456 2.25985 10.0564 2.54425C10.7582 2.82865 11.4164 2.83876 11.5266 2.56683Z" fill="#D1CB7B"/>
<path d="M9.08304 3.59262C9.1637 3.45662 9.06982 3.25192 8.87337 3.13542C8.67692 3.01892 8.45228 3.03473 8.37162 3.17073C8.29097 3.30674 8.38484 3.51143 8.58129 3.62794C8.77775 3.74444 9.00239 3.72863 9.08304 3.59262Z" fill="#00A99D"/>
<path d="M10.6114 4.76821C11.0333 4.60743 11.2212 4.07249 11.031 3.5734C10.8408 3.0743 10.3446 2.80005 9.92267 2.96083C9.50074 3.12161 9.31287 3.65655 9.50305 4.15564C9.69324 4.65474 10.1895 4.929 10.6114 4.76821Z" fill="#F4777C"/>
<path d="M12.8043 4.72134C13.2262 4.56056 13.4141 4.02562 13.2239 3.52652C13.0337 3.02743 12.5375 2.75317 12.1155 2.91396C11.6936 3.07474 11.5057 3.60968 11.6959 4.10877C11.8861 4.60787 12.3823 4.88212 12.8043 4.72134Z" fill="#F14B94"/>
<path d="M13.2998 6.19145C13.4382 5.63566 12.9326 5.0313 12.1705 4.84157C11.4084 4.65184 10.6785 4.9486 10.5401 5.50439C10.4017 6.06019 10.9073 6.66455 11.6694 6.85427C12.4315 7.044 13.1615 6.74724 13.2998 6.19145Z" fill="#FBB03B"/>
</g>
<defs>
<clipPath id="clip0">
<rect width="16.7362" height="23" fill="white"/>
</clipPath>
</defs>
</svg>
