<svg width="16" height="23" viewBox="0 0 16 23" fill="none" xmlns="http://www.w3.org/2000/svg">
<g clip-path="url(#clip0_1012:1)">
<path d="M15.727 7.20632C15.7151 6.55901 15.6081 5.91696 15.4094 5.30077C15.1251 4.48846 14.6946 3.73501 14.1391 3.07763C13.6891 2.47454 13.1542 1.93969 12.5511 1.48967C11.7191 0.834571 10.7366 0.397875 9.69279 0.219301C9.0601 0.13979 8.41994 0.13979 7.78724 0.219301C6.41826 0.251219 5.09047 0.693816 3.97614 1.48967C3.52131 1.76312 3.09564 2.08238 2.70577 2.44244C2.03743 3.07362 1.49811 3.82866 1.11781 4.66559C0.817391 5.37837 0.60412 6.12482 0.482631 6.88873C0.310601 7.61881 0.204313 8.36283 0.165039 9.11187C0.165039 9.11187 0.165039 9.11187 0.165039 10.6998V12.2878C0.165039 13.1072 0.165039 13.0913 0.165039 13.2406C0.222245 13.7785 0.328553 14.31 0.482631 14.8285C0.657306 15.5431 0.733528 15.9052 0.800223 16.0989C1.27026 17.5154 1.14005 17.5439 1.43541 18.322C1.73077 19.1001 2.18492 20.3006 3.34096 21.1804C3.91878 21.6016 4.56279 21.9236 5.24651 22.1331C5.49741 22.2062 5.54187 22.1998 6.51688 22.4507C7.65068 22.7397 7.59986 22.7366 7.78724 22.7683C8.41875 22.865 9.06129 22.865 9.69279 22.7683C10.449 22.6138 11.1922 22.4015 11.9159 22.1331C12.5004 21.9182 13.0392 21.5949 13.5039 21.1804C13.8809 20.8049 14.2017 20.377 14.4567 19.91C14.734 19.5226 14.9484 19.0939 15.0919 18.6396C15.2249 18.1187 15.2249 17.5726 15.0919 17.0517C14.9486 16.5973 14.7342 16.1685 14.4567 15.7813C14.066 15.1461 13.9517 15.1461 13.8215 14.8285C13.6913 14.5109 13.6214 14.0822 13.8215 13.2406C14.047 12.2719 14.3836 11.8432 14.7743 11.0174C15.3842 9.83856 15.7105 8.53354 15.727 7.20632Z" fill="#F2F2F2" stroke="black" stroke-miterlimit="10"/>
<path d="M8.16837 6.32652C8.71036 6.32652 9.14973 6.04214 9.14973 5.69134C9.14973 5.34053 8.71036 5.05615 8.16837 5.05615C7.62638 5.05615 7.18701 5.34053 7.18701 5.69134C7.18701 6.04214 7.62638 6.32652 8.16837 6.32652Z" fill="#FCEE21"/>
<path d="M10.6975 5.3692C11.2073 5.23185 11.5444 4.83767 11.4504 4.48879C11.3564 4.1399 10.8669 3.96843 10.3571 4.10578C9.84734 4.24314 9.51029 4.63732 9.60429 4.9862C9.6983 5.33508 10.1878 5.50656 10.6975 5.3692Z" fill="#009245"/>
<path d="M9.93754 8.23221C10.5883 8.23221 11.1158 7.80564 11.1158 7.27944C11.1158 6.75323 10.5883 6.32666 9.93754 6.32666C9.2868 6.32666 8.75928 6.75323 8.75928 7.27944C8.75928 7.80564 9.2868 8.23221 9.93754 8.23221Z" fill="#ED1E79"/>
<path d="M8.80834 4.31313C9.46009 3.98505 9.84715 3.4384 9.67285 3.09216C9.49856 2.74592 8.82892 2.73119 8.17717 3.05928C7.52542 3.38736 7.13836 3.93401 7.31266 4.28025C7.48695 4.62649 8.15659 4.64121 8.80834 4.31313Z" fill="#F15A24"/>
</g>
<defs>
<clipPath id="clip0_1012:1">
<rect width="15.8859" height="23" fill="white"/>
</clipPath>
</defs>
</svg>
