<svg width="17" height="23" viewBox="0 0 17 23" fill="none" xmlns="http://www.w3.org/2000/svg">
<g clip-path="url(#clip0)">
<path d="M8.3084 22.812C7.42552 22.8177 6.54627 22.6986 5.6967 22.4583C4.81306 22.2232 3.99396 21.7915 3.30056 21.1954C2.60716 20.5993 2.05739 19.8543 1.69231 19.016C1.28872 18.1308 0.986777 17.2027 0.792267 16.2495C0.221135 13.7223 0.0527391 11.1206 0.293298 8.54078C0.388085 7.16218 0.71479 5.80944 1.25966 4.53954C1.28492 4.47954 1.31019 4.42585 1.33545 4.37532C1.97252 3.08586 2.98116 2.01672 4.23137 1.30571C4.85633 0.943454 5.52635 0.665249 6.22409 0.478303C6.93141 0.287049 7.66095 0.190415 8.39367 0.190923C8.98305 0.190281 9.57075 0.253816 10.1464 0.380405C10.7352 0.512427 11.3073 0.710535 11.8517 0.970959C13.0557 1.55508 14.0808 2.45155 14.8203 3.56686C15.545 4.63727 15.9462 5.89366 15.9761 7.18598C15.9806 8.47507 15.6109 9.73777 14.9119 10.8209C14.2018 11.9486 13.1986 12.8623 12.0096 13.4642L11.8075 13.5652L12.0128 13.6631C12.7394 13.9961 13.4096 14.4404 13.9992 14.98C14.5617 15.4831 14.9793 16.1275 15.2087 16.8464C15.4189 17.6115 15.3735 18.4244 15.0792 19.1613C14.7791 19.9291 14.2904 20.6091 13.6581 21.1382C13.0021 21.6704 12.2523 22.0753 11.4475 22.3319C10.6182 22.6 9.7569 22.7561 8.88632 22.7962H8.65578L8.3084 22.812Z" fill="#F2F2F2" stroke="black" stroke-width="0.5" stroke-miterlimit="10"/>
<path d="M8.30772 22.701H8.65195H8.87932C9.73799 22.6605 10.5875 22.5065 11.4058 22.2431C12.2005 21.9904 12.9407 21.5908 13.588 21.0651C14.2077 20.5505 14.6859 19.8864 14.9775 19.1355C15.2633 18.4219 15.3066 17.634 15.1007 16.8933C14.8788 16.193 14.4718 15.5656 13.9227 15.0775C13.3421 14.5449 12.6814 14.1069 11.9647 13.7795L11.5542 13.5837L11.9616 13.3784C13.1318 12.7851 14.1194 11.8858 14.8196 10.7762C15.517 9.71395 15.8809 8.46743 15.8646 7.19678C15.8483 5.92614 15.4525 4.68938 14.728 3.64537C13.999 2.54577 12.9879 1.66229 11.8005 1.08735C11.2647 0.829598 10.701 0.634613 10.1204 0.506277C9.55228 0.37969 8.97191 0.316143 8.38983 0.316793C7.66669 0.316578 6.94671 0.412151 6.24868 0.601017C5.55848 0.785192 4.89581 1.06024 4.27806 1.41895C3.05073 2.12073 2.06101 3.17314 1.43582 4.44119C1.41372 4.49172 1.38845 4.54225 1.36003 4.5991C0.823854 5.85872 0.503574 7.19963 0.41262 8.56559C0.17412 11.1338 0.341439 13.7235 0.908432 16.2396C1.10075 17.1845 1.40061 18.1042 1.80216 18.9808C2.16016 19.806 2.70049 20.5392 3.38256 21.1256C4.06463 21.7119 4.87071 22.1361 5.74023 22.3662C6.57912 22.6057 7.44798 22.7237 8.32035 22.7168L8.30772 22.701ZM8.32035 22.9378C6.53606 22.9378 4.71387 22.4957 3.37802 21.4062C1.799 20.143 1.12002 18.1787 0.700002 16.287C0.126668 13.7483 -0.0427905 11.135 0.197873 8.54349C0.300311 7.15318 0.63218 5.78943 1.18002 4.50751C1.20529 4.45067 1.23055 4.39698 1.25897 4.34329C2.53798 1.6937 5.43074 0.0957307 8.41193 0.0957307C9.62418 0.0925548 10.8215 0.363535 11.9142 0.888399C14.3964 2.0853 16.0702 4.60857 16.1018 7.20448C16.1333 9.80038 14.5227 12.3458 12.0753 13.5837C13.5374 14.2753 14.8985 15.368 15.328 16.8365C15.7891 18.4155 15.047 20.1556 13.749 21.2577C12.4511 22.3599 10.6636 22.8368 8.90775 22.941C8.83195 22.941 8.75616 22.941 8.67721 22.941L8.32035 22.9378Z" fill="#F2F2F2" stroke="black" stroke-width="0.5" stroke-miterlimit="10"/>
<path d="M8.5359 6.68558C9.07484 6.68558 9.51174 6.4028 9.51174 6.05397C9.51174 5.70514 9.07484 5.42236 8.5359 5.42236C7.99696 5.42236 7.56006 5.70514 7.56006 6.05397C7.56006 6.4028 7.99696 6.68558 8.5359 6.68558Z" fill="#FBB03B"/>
<path d="M11.0532 5.73166C11.5601 5.59507 11.8953 5.20312 11.8018 4.8562C11.7083 4.50928 11.2216 4.33877 10.7147 4.47535C10.2078 4.61193 9.87265 5.00389 9.96613 5.35081C10.0596 5.69773 10.5463 5.86824 11.0532 5.73166Z" fill="#D9E021"/>
<path d="M10.2962 8.58086C10.9432 8.58086 11.4678 8.15669 11.4678 7.63345C11.4678 7.11021 10.9432 6.68604 10.2962 6.68604C9.64907 6.68604 9.12451 7.11021 9.12451 7.63345C9.12451 8.15669 9.64907 8.58086 10.2962 8.58086Z" fill="#E6BDB7"/>
<path d="M9.17217 4.68393C9.82025 4.3577 10.2051 3.81412 10.0318 3.46983C9.8585 3.12554 9.19263 3.1109 8.54455 3.43713C7.89647 3.76337 7.51159 4.30694 7.6849 4.65123C7.85821 4.99552 8.52409 5.01016 9.17217 4.68393Z" fill="#FFFF00"/>
</g>
<defs>
<clipPath id="clip0">
<rect width="16.1723" height="23" fill="white"/>
</clipPath>
</defs>
</svg>
