<svg width="12" height="12" viewBox="0 0 12 12" fill="none" xmlns="http://www.w3.org/2000/svg">
<path fill-rule="evenodd" clip-rule="evenodd" d="M10.2857 8.57143C9.98303 8.57291 9.68656 8.6574 9.42857 8.81571L8.10429 7.48714C8.73583 6.59629 8.73583 5.40371 8.10429 4.51286L9.42857 3.18429C9.68656 3.3426 9.98303 3.42709 10.2857 3.42857C11.2325 3.42857 12 2.66106 12 1.71429C12 0.767512 11.2325 0 10.2857 0C9.33894 0 8.57143 0.767512 8.57143 1.71429C8.57291 2.01697 8.6574 2.31344 8.81571 2.57143L7.48714 3.89571C6.59629 3.26417 5.40371 3.26417 4.51286 3.89571L3.18429 2.57143C3.3426 2.31344 3.42709 2.01697 3.42857 1.71429C3.42857 0.767512 2.66106 0 1.71429 0C0.767512 0 0 0.767512 0 1.71429C0 2.66106 0.767512 3.42857 1.71429 3.42857C2.01697 3.42709 2.31344 3.3426 2.57143 3.18429L3.89571 4.51286C3.26417 5.40371 3.26417 6.59629 3.89571 7.48714L2.57143 8.81571C2.31344 8.6574 2.01697 8.57291 1.71429 8.57143C0.767512 8.57143 0 9.33894 0 10.2857C0 11.2325 0.767512 12 1.71429 12C2.66106 12 3.42857 11.2325 3.42857 10.2857C3.42709 9.98303 3.3426 9.68656 3.18429 9.42857L4.51286 8.10429C5.40371 8.73583 6.59629 8.73583 7.48714 8.10429L8.81571 9.42857C8.6574 9.68656 8.57291 9.98303 8.57143 10.2857C8.57143 11.2325 9.33894 12 10.2857 12C11.2325 12 12 11.2325 12 10.2857C12 9.33894 11.2325 8.57143 10.2857 8.57143ZM10.2858 0.857153C10.7591 0.857153 11.1429 1.24091 11.1429 1.7143C11.1429 2.18768 10.7591 2.57144 10.2858 2.57144C9.81237 2.57144 9.42861 2.18768 9.42861 1.7143C9.42861 1.24091 9.81237 0.857153 10.2858 0.857153ZM0.85708 1.7143C0.85708 1.24091 1.24084 0.857153 1.71422 0.857153C2.18761 0.857153 2.57137 1.24091 2.57137 1.7143C2.57137 2.18768 2.18761 2.57144 1.71422 2.57144C1.24084 2.57144 0.85708 2.18768 0.85708 1.7143ZM1.71422 11.1429C1.24084 11.1429 0.85708 10.7591 0.85708 10.2857C0.85708 9.81233 1.24084 9.42858 1.71422 9.42858C2.18761 9.42858 2.57137 9.81233 2.57137 10.2857C2.57137 10.7591 2.18761 11.1429 1.71422 11.1429ZM5.99998 7.7143C5.05321 7.7143 4.28569 6.94679 4.28569 6.00002C4.28569 5.05324 5.05321 4.28573 5.99998 4.28573C6.94675 4.28573 7.71426 5.05324 7.71426 6.00002C7.71426 6.45467 7.53365 6.89071 7.21216 7.2122C6.89067 7.53369 6.45464 7.7143 5.99998 7.7143ZM10.2858 11.1429C9.81237 11.1429 9.42861 10.7591 9.42861 10.2857C9.42861 9.81233 9.81237 9.42858 10.2858 9.42858C10.7591 9.42858 11.1429 9.81233 11.1429 10.2857C11.1429 10.7591 10.7591 11.1429 10.2858 11.1429Z" fill="black" fill-opacity="0.3"/>
</svg>
