<svg width="13" height="9" viewBox="0 0 13 9" fill="none" xmlns="http://www.w3.org/2000/svg">
<path d="M9.03317 9C8.72971 9 8.44128 8.92898 8.17113 8.78656C7.42811 8.39539 6.95849 7.51247 6.63106 6.60306C5.99651 7.75892 4.79159 9.41113 3.28768 8.89367C2.93344 8.77198 2.34804 8.39769 2.41304 7.26372C2.43863 6.81918 2.56416 6.32321 2.75835 5.87139C1.84349 5.18156 0.254267 3.75813 0.0283959 2.34546C-0.0739772 1.70361 0.100707 1.13125 0.548387 0.64449C1.02897 0.0986146 1.68262 -0.107912 2.43376 0.0533169C3.90314 0.368865 5.58092 2.15889 6.42266 3.54969C7.22052 2.47137 9.08964 0.585757 10.7268 0.256005C11.4617 0.107828 12.0995 0.284796 12.5687 0.768867C12.8506 1.05985 13.1415 1.58807 12.9242 2.45256C12.615 3.68021 11.4068 5.11284 10.5529 5.88559C10.7365 6.36198 10.8324 6.88214 10.8089 7.32168C10.7662 8.13051 10.3656 8.69098 9.68235 8.89827C9.45932 8.96622 9.24279 9 9.03317 9ZM6.84799 4.39691C6.87643 4.47407 6.9008 4.54777 6.91909 4.61572L6.9853 4.86716C7.25749 5.90402 7.71329 7.6403 8.57859 8.0952C8.82721 8.22687 9.10467 8.24261 9.42601 8.1451C9.764 8.04261 9.94762 7.75239 9.97281 7.28099C9.98825 6.99001 9.94194 6.6879 9.85906 6.40805C9.83753 6.41841 9.81763 6.42724 9.79975 6.433C9.31714 6.60536 8.52456 6.44721 8.18494 5.97772C8.05697 5.80037 7.82094 5.32436 8.39212 4.72359C8.69396 4.43031 9.07339 4.35622 9.44307 4.50862C9.71282 4.61956 9.95656 4.84605 10.1613 5.13626C10.8869 4.42263 11.9398 3.16734 12.1344 2.15659C12.2067 1.78231 12.147 1.50284 11.9516 1.30131C11.6827 1.02453 11.35 0.937774 10.9011 1.0276C9.23548 1.36542 7.05071 3.92589 6.84799 4.39691ZM3.46277 6.34394C3.37705 6.57235 3.30759 6.82341 3.27021 7.0879C3.23974 7.30249 3.1715 8.0119 3.57368 8.15048C4.67906 8.53013 5.8722 6.38233 6.2756 5.44682C6.23944 5.31169 6.20532 5.18271 6.17282 5.05795L6.10701 4.80958C5.82101 3.73587 3.81092 1.16004 2.2477 0.82453C1.80652 0.729328 1.46893 0.835278 1.18578 1.15697C0.896943 1.47137 0.790914 1.81954 0.855912 2.22761C1.031 3.32205 2.3391 4.51936 3.15362 5.1543C3.41646 4.78232 3.72967 4.50977 4.06036 4.43261C4.24641 4.38961 4.71481 4.34739 5.05931 4.8925C5.06499 4.90094 5.06987 4.91092 5.07515 4.92013C5.39771 5.53856 5.1889 6.01726 4.88584 6.25872C4.51128 6.55853 3.93808 6.58655 3.46277 6.34394ZM3.82433 5.62839C4.02257 5.74586 4.24479 5.73549 4.34635 5.65449C4.45482 5.56812 4.37844 5.37657 4.33213 5.28405C4.29232 5.22378 4.26145 5.19998 4.25251 5.19614C4.16638 5.20536 3.99901 5.36543 3.82433 5.62839ZM9.06933 5.2234C9.05227 5.2234 9.0352 5.23415 9.00311 5.26524C8.98199 5.28789 8.82436 5.46025 8.87636 5.53204C8.97345 5.66716 9.34923 5.74778 9.50401 5.69365C9.51254 5.68866 9.52351 5.68405 9.53448 5.67676C9.3931 5.45027 9.23914 5.28827 9.10833 5.23453C9.09289 5.22839 9.08111 5.2234 9.06933 5.2234Z" fill="black" fill-opacity="0.8"/>
</svg>
