<svg width="12" height="14" viewBox="0 0 12 14" fill="none" xmlns="http://www.w3.org/2000/svg">
<path d="M2.98828 13.5244H8.36133C9.19922 13.5244 9.76172 12.9795 9.80273 12.1416L10.207 3.62207H10.9102C11.1504 3.62207 11.3496 3.41699 11.3496 3.17676C11.3496 2.93652 11.1504 2.7373 10.9102 2.7373H8.23242V1.84082C8.23242 0.991211 7.68164 0.475586 6.7793 0.475586H4.55859C3.65625 0.475586 3.10547 0.991211 3.10547 1.84082V2.7373H0.439453C0.205078 2.7373 0 2.93652 0 3.17676C0 3.42285 0.205078 3.62207 0.439453 3.62207H1.14258L1.54688 12.1475C1.58789 12.9854 2.14453 13.5244 2.98828 13.5244ZM4.03711 1.89941C4.03711 1.56543 4.26562 1.34863 4.61719 1.34863H6.7207C7.07227 1.34863 7.30078 1.56543 7.30078 1.89941V2.7373H4.03711V1.89941ZM3.07031 12.6396C2.73633 12.6396 2.48438 12.3877 2.4668 12.042L2.05664 3.62207H9.26367L8.88281 12.042C8.86523 12.3936 8.61328 12.6396 8.26758 12.6396H3.07031ZM3.9375 11.6377C4.16016 11.6377 4.30664 11.4971 4.30078 11.292L4.125 5.02246C4.11914 4.81738 3.9668 4.68262 3.75586 4.68262C3.5332 4.68262 3.38672 4.82324 3.39258 5.02832L3.57422 11.292C3.58008 11.5029 3.7207 11.6377 3.9375 11.6377ZM5.67773 11.6377C5.90039 11.6377 6.05273 11.4971 6.05273 11.292V5.02832C6.05273 4.82324 5.90039 4.68262 5.67773 4.68262C5.45508 4.68262 5.29688 4.82324 5.29688 5.02832V11.292C5.29688 11.4971 5.45508 11.6377 5.67773 11.6377ZM7.41211 11.6377C7.62305 11.6377 7.76953 11.5029 7.77539 11.292L7.95703 5.02832C7.96289 4.82324 7.81055 4.68262 7.58789 4.68262C7.38281 4.68262 7.23047 4.81738 7.22461 5.02832L7.04883 11.292C7.04297 11.4971 7.18945 11.6377 7.41211 11.6377Z" fill="white" fill-opacity="0.8"/>
</svg>
