<svg width="13" height="11" viewBox="0 0 13 11" fill="none" xmlns="http://www.w3.org/2000/svg">
<path d="M8.50977 3.0293C9.11914 3.0293 9.63477 2.63672 9.83398 2.09766H11.8613C12.1016 2.09766 12.3125 1.88672 12.3125 1.62305C12.3125 1.35938 12.1016 1.1543 11.8613 1.1543H9.83398C9.64062 0.609375 9.11914 0.210938 8.50977 0.210938C7.90039 0.210938 7.37305 0.609375 7.17969 1.1543H0.974609C0.710938 1.1543 0.505859 1.35938 0.505859 1.62305C0.505859 1.88672 0.710938 2.09766 0.974609 2.09766H7.18555C7.37891 2.63672 7.90039 3.0293 8.50977 3.0293ZM8.50977 2.30859C8.12305 2.30859 7.82422 2.00391 7.82422 1.61719C7.82422 1.23047 8.12305 0.931641 8.50977 0.931641C8.89648 0.931641 9.19531 1.23047 9.19531 1.61719C9.19531 2.00391 8.89648 2.30859 8.50977 2.30859ZM0.951172 4.72852C0.710938 4.72852 0.505859 4.93945 0.505859 5.20312C0.505859 5.4668 0.710938 5.67188 0.951172 5.67188H3.04883C3.24219 6.22266 3.76367 6.61523 4.37305 6.61523C4.98242 6.61523 5.50391 6.22266 5.70312 5.67188H11.8379C12.1016 5.67188 12.3125 5.4668 12.3125 5.20312C12.3125 4.93945 12.1016 4.72852 11.8379 4.72852H5.69727C5.50391 4.18945 4.98242 3.79688 4.37305 3.79688C3.76367 3.79688 3.24219 4.18945 3.04883 4.72852H0.951172ZM4.37305 5.88867C3.99219 5.88867 3.6875 5.58398 3.6875 5.20312C3.6875 4.81641 3.99219 4.51758 4.37305 4.51758C4.75977 4.51758 5.05859 4.81641 5.05859 5.20312C5.05859 5.58398 4.75977 5.88867 4.37305 5.88867ZM8.50977 10.1895C9.11914 10.1895 9.64062 9.79688 9.83398 9.25195H11.8613C12.1016 9.25195 12.3125 9.04688 12.3125 8.7832C12.3125 8.51953 12.1016 8.30859 11.8613 8.30859H9.83398C9.64062 7.76367 9.11914 7.37695 8.50977 7.37695C7.90039 7.37695 7.37891 7.76367 7.18555 8.30859H0.974609C0.710938 8.30859 0.505859 8.51953 0.505859 8.7832C0.505859 9.04688 0.710938 9.25195 0.974609 9.25195H7.17969C7.37891 9.79688 7.90039 10.1895 8.50977 10.1895ZM8.50977 9.46875C8.12305 9.46875 7.82422 9.16406 7.82422 8.7832C7.82422 8.39062 8.12305 8.09766 8.50977 8.09766C8.89648 8.09766 9.19531 8.39062 9.19531 8.7832C9.19531 9.16406 8.89648 9.46875 8.50977 9.46875Z" fill="black"/>
</svg>
