<svg width="16" height="14" viewBox="0 0 16 14" fill="none" xmlns="http://www.w3.org/2000/svg">
<path d="M15.913 3.95619C15.7511 3.70719 15.4169 3.63627 15.1683 3.79892L13.5357 4.86135L11.0942 3.45235C10.9276 3.35618 10.7227 3.35618 10.5562 3.45235L8.09787 4.87118L5.90871 3.60759V1.45145C5.90871 1.15435 5.668 0.913422 5.37065 0.913422C5.07316 0.913422 4.83249 1.15438 4.83249 1.45145V3.60756L2.66962 4.85587L0.844628 3.59176C0.600761 3.42286 0.265002 3.48383 0.0957179 3.72786C-0.0734352 3.97225 -0.0124682 4.30723 0.231824 4.47677L2.10528 5.77442V8.64183C2.10528 8.83407 2.20768 9.01175 2.37429 9.10792L4.83246 10.527V12.5485C4.83246 12.8456 5.07316 13.0866 5.37062 13.0866C5.66794 13.0866 5.90867 12.8456 5.90867 12.5485V10.527L8.09783 9.26316L10.2871 10.527V12.5485C10.2871 12.8456 10.5277 13.0866 10.8252 13.0866C11.1226 13.0866 11.3633 12.8456 11.3633 12.5485V10.527L13.8215 9.10792C13.9881 9.01175 14.0905 8.83404 14.0905 8.64183V5.78412L15.7553 4.70062C16.0045 4.53849 16.0749 4.20531 15.913 3.95619ZM3.18152 5.80339L5.37068 4.5398L7.55984 5.80339V8.33095L5.37068 9.5948L3.18152 8.33095V5.80339ZM13.0144 8.33095L10.8252 9.5948L8.63605 8.33095V5.80339L10.8252 4.5398L13.0144 5.80339V8.33095Z" fill="black" fill-opacity="0.3"/>
</svg>
