<svg width="12" height="12" viewBox="0 0 12 12" fill="none" xmlns="http://www.w3.org/2000/svg">
<path d="M1.31197 12C1.87747 12 2.3525 11.6437 2.53911 11.1461H9.45523C9.64185 11.6437 10.1225 12 10.688 12C11.4119 12 11.9943 11.4119 11.9943 10.688C11.9943 10.1225 11.6437 9.64185 11.1404 9.46089V2.54477C11.6437 2.35815 11.9943 1.87747 11.9943 1.31197C11.9943 0.588124 11.4119 0 10.688 0C10.1225 0 9.64185 0.356268 9.45523 0.859566H2.53911C2.3525 0.356268 1.87747 0 1.31197 0C0.582469 0 0 0.588124 0 1.31197C0 1.87747 0.356268 2.35815 0.853911 2.53911V9.46089C0.356268 9.64185 0 10.1225 0 10.688C0 11.4119 0.582469 12 1.31197 12ZM2.53911 10.2356C2.40905 9.8737 2.12064 9.59095 1.76437 9.46089V2.54477C2.12064 2.40905 2.40905 2.1263 2.53911 1.77003H9.45523C9.59095 2.1263 9.8737 2.40905 10.23 2.53911V9.46089C9.8737 9.59095 9.59095 9.8737 9.45523 10.2356H2.53911ZM3.60226 7.72479H4.25259V8.38077C4.25259 8.83318 4.51272 9.08765 4.95947 9.08765H8.42601C8.87276 9.08765 9.13289 8.83318 9.13289 8.38077V4.98209C9.13289 4.53534 8.86711 4.28087 8.40905 4.28087H7.77568V3.61923C7.77568 3.17248 7.51555 2.91235 7.06315 2.91235H3.60226C3.15551 2.91235 2.89538 3.17248 2.89538 3.61923V7.01791C2.89538 7.46466 3.15551 7.72479 3.60226 7.72479ZM3.82846 6.98398C3.70405 6.98398 3.63619 6.91612 3.63619 6.79171V3.84543C3.63619 3.72667 3.70405 3.65316 3.82846 3.65316H6.8426C6.96701 3.65316 7.03487 3.72667 7.03487 3.84543V4.28087H4.95947C4.51272 4.28087 4.25259 4.53534 4.25259 4.98209V6.98398H3.82846ZM5.18567 8.34684C5.06126 8.34684 4.9934 8.27898 4.9934 8.16023V5.20829C4.9934 5.08954 5.06126 5.02168 5.18567 5.02168H8.18285C8.31857 5.02168 8.39208 5.08954 8.39208 5.20829V8.16023C8.39208 8.27898 8.32422 8.34684 8.19981 8.34684H5.18567Z" fill="white" fill-opacity="0.8"/>
</svg>
