<svg width="6" height="25" viewBox="0 0 6 25" fill="none" xmlns="http://www.w3.org/2000/svg">
<path d="M3.65373 23.9782C3.6856 23.9302 3.72202 23.8517 3.72657 23.7513C3.73567 23.6074 3.66284 23.4983 3.53991 23.3151C3.38511 23.0882 3.3077 22.9748 3.21209 22.8526C2.96623 22.5429 2.9298 22.5298 2.76589 22.3116C2.61564 22.1066 2.54279 22.0063 2.47905 21.8492C2.38343 21.6136 2.37433 21.4129 2.36522 21.2253C2.36067 21.1032 2.35157 20.8633 2.42441 20.5622C2.44263 20.4881 2.52458 20.1696 2.77045 19.7944C2.9207 19.5675 3.0163 19.489 3.34412 19.1313C3.68104 18.7692 3.85406 18.5772 4.00431 18.3765C4.41863 17.8225 4.56432 17.2815 4.63717 16.9979C4.78742 16.409 4.77833 15.9335 4.76467 15.7415C4.73735 15.2616 4.62807 14.9039 4.5188 14.5505C4.29115 13.8088 4.15 13.7914 4.05894 13.2679C3.97699 12.8011 4.01797 12.4128 4.04529 12.1816C4.09082 11.7759 4.18188 11.4792 4.25928 11.2174C4.42774 10.6634 4.51425 10.6241 4.6736 10.118C4.82385 9.63379 4.87849 9.24987 4.91947 8.95321C4.98321 8.47768 5.02873 8.11558 4.97865 7.63133C4.9058 6.98566 4.70092 6.50577 4.60531 6.30945C4.5097 6.11313 4.37765 5.87318 3.55811 4.91776C2.71125 3.9318 2.4836 3.76166 2.03741 3.11598C1.75057 2.69717 1.59122 2.40923 1.50471 2.24345C1.12681 1.50617 1.04941 0.991384 1.01753 1.00011C0.967452 1.00883 1.05396 2.17802 1.59122 3.46064C1.78245 3.91872 2.0283 4.37679 2.22408 4.74326C2.6384 5.51981 2.71581 5.55908 2.87061 5.88192C3.4534 7.09037 3.23029 8.33372 3.15744 8.72636C3.12557 8.8965 2.94346 9.47237 2.57011 10.6328C2.23319 11.6842 2.21953 11.6711 2.19676 11.85C2.09204 12.7007 2.34702 13.4773 2.57011 14.1666C2.7067 14.581 2.79777 14.7599 2.88427 15.2005C2.95257 15.5408 3.02542 15.916 2.98444 16.3392C2.9298 16.8889 2.62474 17.3731 2.02375 18.3242C1.59576 18.996 1.54569 18.9873 1.37723 19.345C1.19511 19.7333 0.967452 20.2394 1.00388 20.92C1.01754 21.1643 1.0585 21.7314 1.45006 22.268C1.59121 22.46 1.68683 22.5254 2.36978 23.1144C3.29404 23.9127 3.16655 23.808 3.18932 23.8299C3.20298 23.8429 3.24851 23.904 3.33502 23.9476C3.38965 23.9782 3.43974 23.9913 3.48072 24" fill="#F3F3F3"/>
<path d="M3.65373 23.9782C3.6856 23.9302 3.72202 23.8517 3.72657 23.7513C3.73567 23.6074 3.66284 23.4983 3.53991 23.3151C3.38511 23.0882 3.3077 22.9748 3.21209 22.8526C2.96623 22.5429 2.9298 22.5298 2.76589 22.3116C2.61564 22.1066 2.54279 22.0063 2.47905 21.8492C2.38343 21.6136 2.37433 21.4129 2.36522 21.2253C2.36067 21.1032 2.35157 20.8633 2.42441 20.5622C2.44263 20.4881 2.52458 20.1696 2.77045 19.7944C2.9207 19.5675 3.0163 19.489 3.34412 19.1313C3.68104 18.7692 3.85406 18.5772 4.00431 18.3765C4.41863 17.8225 4.56432 17.2815 4.63717 16.9979C4.78742 16.409 4.77833 15.9335 4.76467 15.7415C4.73735 15.2616 4.62807 14.9039 4.5188 14.5505C4.29115 13.8088 4.15 13.7914 4.05894 13.2679C3.97699 12.8011 4.01797 12.4128 4.04529 12.1816C4.09082 11.7759 4.18188 11.4792 4.25928 11.2174C4.42774 10.6634 4.51425 10.6241 4.6736 10.118C4.82385 9.63379 4.87849 9.24987 4.91947 8.95321C4.98321 8.47768 5.02873 8.11558 4.97865 7.63133C4.9058 6.98566 4.70092 6.50577 4.60531 6.30945C4.5097 6.11313 4.37765 5.87318 3.55811 4.91776C2.71125 3.9318 2.4836 3.76166 2.03741 3.11598C1.75057 2.69717 1.59122 2.40923 1.50471 2.24345C1.12681 1.50617 1.04941 0.991384 1.01753 1.00011C0.967452 1.00883 1.05396 2.17802 1.59122 3.46064C1.78245 3.91872 2.0283 4.37679 2.22408 4.74326C2.6384 5.51981 2.71581 5.55908 2.87061 5.88192C3.4534 7.09037 3.23029 8.33372 3.15744 8.72636C3.12557 8.8965 2.94346 9.47237 2.57011 10.6328C2.23319 11.6842 2.21953 11.6711 2.19676 11.85C2.09204 12.7007 2.34702 13.4773 2.57011 14.1666C2.7067 14.581 2.79777 14.7599 2.88427 15.2005C2.95257 15.5408 3.02542 15.916 2.98444 16.3392C2.9298 16.8889 2.62474 17.3731 2.02375 18.3242C1.59576 18.996 1.54569 18.9873 1.37723 19.345C1.19511 19.7333 0.967452 20.2394 1.00388 20.92C1.01754 21.1643 1.0585 21.7314 1.45006 22.268C1.59121 22.46 1.68683 22.5254 2.36978 23.1144C3.29404 23.9127 3.16655 23.808 3.18932 23.8299C3.20298 23.8429 3.24851 23.904 3.33502 23.9476C3.38965 23.9782 3.43974 23.9913 3.48072 24" stroke="#010101" stroke-width="0.5" stroke-miterlimit="10"/>
</svg>
