<?xml version="1.0" encoding="utf-8"?>
<!-- Generator: Adobe Illustrator 24.1.2, SVG Export Plug-In . SVG Version: 6.00 Build 0)  -->
<svg version="1.1" id="Layer_1" xmlns="http://www.w3.org/2000/svg" xmlns:xlink="http://www.w3.org/1999/xlink" x="0px" y="0px"
	 viewBox="0 0 612 792" style="enable-background:new 0 0 612 792;" xml:space="preserve">
<style type="text/css">
	.st0{fill:#F3F3F3;stroke:#010101;stroke-miterlimit:10;}
</style>
<path class="st0" d="M307.2,422.43c0.07-0.11,0.15-0.29,0.16-0.52c0.02-0.33-0.14-0.58-0.41-1c-0.34-0.52-0.51-0.78-0.72-1.06
	c-0.54-0.71-0.62-0.74-0.98-1.24c-0.33-0.47-0.49-0.7-0.63-1.06c-0.21-0.54-0.23-1-0.25-1.43c-0.01-0.28-0.03-0.83,0.13-1.52
	c0.04-0.17,0.22-0.9,0.76-1.76c0.33-0.52,0.54-0.7,1.26-1.52c0.74-0.83,1.12-1.27,1.45-1.73c0.91-1.27,1.23-2.51,1.39-3.16
	c0.33-1.35,0.31-2.44,0.28-2.88c-0.06-1.1-0.3-1.92-0.54-2.73c-0.5-1.7-0.81-1.74-1.01-2.94c-0.18-1.07-0.09-1.96-0.03-2.49
	c0.1-0.93,0.3-1.61,0.47-2.21c0.37-1.27,0.56-1.36,0.91-2.52c0.33-1.11,0.45-1.99,0.54-2.67c0.14-1.09,0.24-1.92,0.13-3.03
	c-0.16-1.48-0.61-2.58-0.82-3.03c-0.21-0.45-0.5-1-2.3-3.19c-1.86-2.26-2.36-2.65-3.34-4.13c-0.63-0.96-0.98-1.62-1.17-2
	c-0.83-1.69-1-2.87-1.07-2.85c-0.11,0.02,0.08,2.7,1.26,5.64c0.42,1.05,0.96,2.1,1.39,2.94c0.91,1.78,1.08,1.87,1.42,2.61
	c1.28,2.77,0.79,5.62,0.63,6.52c-0.07,0.39-0.47,1.71-1.29,4.37c-0.74,2.41-0.77,2.38-0.82,2.79c-0.23,1.95,0.33,3.73,0.82,5.31
	c0.3,0.95,0.5,1.36,0.69,2.37c0.15,0.78,0.31,1.64,0.22,2.61c-0.12,1.26-0.79,2.37-2.11,4.55c-0.94,1.54-1.05,1.52-1.42,2.34
	c-0.4,0.89-0.9,2.05-0.82,3.61c0.03,0.56,0.12,1.86,0.98,3.09c0.31,0.44,0.52,0.59,2.02,1.94c2.03,1.83,1.75,1.59,1.8,1.64
	c0.03,0.03,0.13,0.17,0.32,0.27c0.12,0.07,0.23,0.1,0.32,0.12"/>
<path class="st0" d="M307.2,422.43c0.07-0.11,0.15-0.29,0.16-0.52c0.02-0.33-0.14-0.58-0.41-1c-0.34-0.52-0.51-0.78-0.72-1.06
	c-0.54-0.71-0.62-0.74-0.98-1.24c-0.33-0.47-0.49-0.7-0.63-1.06c-0.21-0.54-0.23-1-0.25-1.43c-0.01-0.28-0.03-0.83,0.13-1.52
	c0.04-0.17,0.22-0.9,0.76-1.76c0.33-0.52,0.54-0.7,1.26-1.52c0.74-0.83,1.12-1.27,1.45-1.73c0.91-1.27,1.23-2.51,1.39-3.16
	c0.33-1.35,0.31-2.44,0.28-2.88c-0.06-1.1-0.3-1.92-0.54-2.73c-0.5-1.7-0.81-1.74-1.01-2.94c-0.18-1.07-0.09-1.96-0.03-2.49
	c0.1-0.93,0.3-1.61,0.47-2.21c0.37-1.27,0.56-1.36,0.91-2.52c0.33-1.11,0.45-1.99,0.54-2.67c0.14-1.09,0.24-1.92,0.13-3.03
	c-0.16-1.48-0.61-2.58-0.82-3.03c-0.21-0.45-0.5-1-2.3-3.19c-1.86-2.26-2.36-2.65-3.34-4.13c-0.63-0.96-0.98-1.62-1.17-2
	c-0.83-1.69-1-2.87-1.07-2.85c-0.11,0.02,0.08,2.7,1.26,5.64c0.42,1.05,0.96,2.1,1.39,2.94c0.91,1.78,1.08,1.87,1.42,2.61
	c1.28,2.77,0.79,5.62,0.63,6.52c-0.07,0.39-0.47,1.71-1.29,4.37c-0.74,2.41-0.77,2.38-0.82,2.79c-0.23,1.95,0.33,3.73,0.82,5.31
	c0.3,0.95,0.5,1.36,0.69,2.37c0.15,0.78,0.31,1.64,0.22,2.61c-0.12,1.26-0.79,2.37-2.11,4.55c-0.94,1.54-1.05,1.52-1.42,2.34
	c-0.4,0.89-0.9,2.05-0.82,3.61c0.03,0.56,0.12,1.86,0.98,3.09c0.31,0.44,0.52,0.59,2.02,1.94c2.03,1.83,1.75,1.59,1.8,1.64
	c0.03,0.03,0.13,0.17,0.32,0.27c0.12,0.07,0.23,0.1,0.32,0.12"/>
<path class="st0" d="M307.2,422.43c0.07-0.11,0.15-0.29,0.16-0.52c0.02-0.33-0.14-0.58-0.41-1c-0.34-0.52-0.51-0.78-0.72-1.06
	c-0.54-0.71-0.62-0.74-0.98-1.24c-0.33-0.47-0.49-0.7-0.63-1.06c-0.21-0.54-0.23-1-0.25-1.43c-0.01-0.28-0.03-0.83,0.13-1.52
	c0.04-0.17,0.22-0.9,0.76-1.76c0.33-0.52,0.54-0.7,1.26-1.52c0.74-0.83,1.12-1.27,1.45-1.73c0.91-1.27,1.23-2.51,1.39-3.16
	c0.33-1.35,0.31-2.44,0.28-2.88c-0.06-1.1-0.3-1.92-0.54-2.73c-0.5-1.7-0.81-1.74-1.01-2.94c-0.18-1.07-0.09-1.96-0.03-2.49
	c0.1-0.93,0.3-1.61,0.47-2.21c0.37-1.27,0.56-1.36,0.91-2.52c0.33-1.11,0.45-1.99,0.54-2.67c0.14-1.09,0.24-1.92,0.13-3.03
	c-0.16-1.48-0.61-2.58-0.82-3.03c-0.21-0.45-0.5-1-2.3-3.19c-1.86-2.26-2.36-2.65-3.34-4.13c-0.63-0.96-0.98-1.62-1.17-2
	c-0.83-1.69-1-2.87-1.07-2.85c-0.11,0.02,0.08,2.7,1.26,5.64c0.42,1.05,0.96,2.1,1.39,2.94c0.91,1.78,1.08,1.87,1.42,2.61
	c1.28,2.77,0.79,5.62,0.63,6.52c-0.07,0.39-0.47,1.71-1.29,4.37c-0.74,2.41-0.77,2.38-0.82,2.79c-0.23,1.95,0.33,3.73,0.82,5.31
	c0.3,0.95,0.5,1.36,0.69,2.37c0.15,0.78,0.31,1.64,0.22,2.61c-0.12,1.26-0.79,2.37-2.11,4.55c-0.94,1.54-1.05,1.52-1.42,2.34
	c-0.4,0.89-0.9,2.05-0.82,3.61c0.03,0.56,0.12,1.86,0.98,3.09c0.31,0.44,0.52,0.59,2.02,1.94c2.03,1.83,1.75,1.59,1.8,1.64
	c0.03,0.03,0.13,0.17,0.32,0.27c0.12,0.07,0.23,0.1,0.32,0.12"/>
</svg>
