<svg width="11" height="12" viewBox="0 0 11 12" fill="none" xmlns="http://www.w3.org/2000/svg">
<path d="M10.3145 1.31543C9.7168 0.717773 8.87305 0.624023 7.87109 0.624023H3.30664C2.32227 0.624023 1.47852 0.717773 0.880859 1.31543C0.283203 1.91309 0.195312 2.75098 0.195312 3.72949V8.25293C0.195312 9.25488 0.283203 10.0869 0.880859 10.6846C1.47852 11.2822 2.32227 11.376 3.31836 11.376H7.87109C8.87305 11.376 9.7168 11.2822 10.3145 10.6846C10.9121 10.0869 11 9.25488 11 8.25293V3.74707C11 2.74512 10.9121 1.90723 10.3145 1.31543ZM10.0566 3.58301V8.41113C10.0566 9.02051 9.98047 9.6416 9.62305 9.99902C9.27148 10.3506 8.63867 10.4326 8.03516 10.4326H3.16016C2.55664 10.4326 1.92383 10.3506 1.56641 9.99902C1.21484 9.6416 1.13867 9.02051 1.13867 8.41113V3.60059C1.13867 2.98535 1.21484 2.35254 1.56641 2.00098C1.92383 1.64355 2.5625 1.56738 3.17773 1.56738H8.03516C8.63867 1.56738 9.27148 1.64941 9.62305 2.00098C9.98047 2.3584 10.0566 2.97949 10.0566 3.58301ZM3.37109 6.47754H5.11133V8.22363C5.11133 8.5166 5.30469 8.72168 5.5918 8.72168C5.88477 8.72168 6.08984 8.5166 6.08984 8.22363V6.47754H7.83594C8.12891 6.47754 8.33398 6.28418 8.33398 5.99707C8.33398 5.7041 8.12891 5.49902 7.83594 5.49902H6.08984V3.75879C6.08984 3.45996 5.88477 3.25488 5.5918 3.25488C5.30469 3.25488 5.11133 3.45996 5.11133 3.75879V5.49902H3.37109C3.07227 5.49902 2.86719 5.7041 2.86719 5.99707C2.86719 6.28418 3.07227 6.47754 3.37109 6.47754Z" fill="white" fill-opacity="0.8"/>
</svg>
