<svg width="381" height="354" viewBox="0 0 381 354" fill="none" xmlns="http://www.w3.org/2000/svg">
<rect width="381" height="354" fill="black"/>
<circle cx="191" cy="177" r="146" fill="url(#paint0_radial_1902_9758)"/>
<circle cx="191" cy="177" r="126" fill="url(#paint1_radial_1902_9758)"/>
<circle cx="191" cy="177" r="105" fill="url(#paint2_radial_1902_9758)"/>
<path d="M150.021 174.532V181H150.923V173.322H149.735L147.524 177.458H147.469L145.269 173.322H144.037V181H144.939V174.532H144.994L145.643 175.819L147.48 179.163L149.317 175.819L149.966 174.532H150.021Z" fill="white"/>
<path d="M155.076 181.132C155.45 181.132 155.802 181.066 156.11 180.923C156.418 180.791 156.693 180.593 156.924 180.329C157.144 180.065 157.32 179.757 157.452 179.394C157.573 179.031 157.639 178.624 157.639 178.162C157.639 177.722 157.573 177.315 157.452 176.941C157.32 176.578 157.144 176.27 156.924 176.006C156.693 175.742 156.418 175.544 156.11 175.401C155.802 175.269 155.45 175.192 155.076 175.192C154.691 175.192 154.339 175.269 154.031 175.401C153.712 175.544 153.437 175.742 153.217 176.006C152.997 176.27 152.821 176.578 152.7 176.941C152.568 177.315 152.513 177.722 152.513 178.162C152.513 178.624 152.568 179.031 152.7 179.394C152.821 179.757 152.997 180.065 153.217 180.329C153.437 180.593 153.712 180.791 154.031 180.923C154.339 181.066 154.691 181.132 155.076 181.132ZM155.076 180.351C154.592 180.351 154.207 180.208 153.91 179.911C153.602 179.625 153.459 179.174 153.459 178.569V177.755C153.459 177.161 153.602 176.71 153.91 176.413C154.207 176.127 154.592 175.973 155.076 175.973C155.549 175.973 155.934 176.127 156.242 176.413C156.539 176.71 156.693 177.161 156.693 177.755V178.569C156.693 179.174 156.539 179.625 156.242 179.911C155.934 180.208 155.549 180.351 155.076 180.351Z" fill="white"/>
<path d="M162.771 180.076V181H163.651V172.86H162.771V176.248H162.727C162.573 175.896 162.364 175.632 162.078 175.456C161.792 175.28 161.462 175.192 161.066 175.192C160.714 175.192 160.395 175.269 160.109 175.401C159.823 175.544 159.57 175.742 159.372 175.995C159.174 176.259 159.02 176.567 158.91 176.93C158.8 177.304 158.756 177.711 158.756 178.162C158.756 178.624 158.8 179.031 158.91 179.394C159.02 179.768 159.174 180.076 159.372 180.329C159.57 180.593 159.823 180.791 160.109 180.923C160.395 181.066 160.714 181.132 161.066 181.132C161.825 181.132 162.375 180.78 162.727 180.076H162.771ZM161.308 180.34C160.802 180.34 160.417 180.186 160.131 179.878C159.845 179.57 159.702 179.152 159.702 178.646V177.678C159.702 177.172 159.845 176.765 160.131 176.457C160.417 176.149 160.802 175.984 161.308 175.984C161.506 175.984 161.693 176.017 161.869 176.072C162.045 176.127 162.21 176.204 162.342 176.292C162.474 176.391 162.573 176.512 162.65 176.644C162.727 176.776 162.771 176.919 162.771 177.073V179.185C162.771 179.372 162.727 179.537 162.65 179.68C162.573 179.823 162.474 179.944 162.342 180.043C162.21 180.142 162.045 180.219 161.869 180.263C161.693 180.318 161.506 180.34 161.308 180.34Z" fill="white"/>
<path d="M167.711 181.132C168.239 181.132 168.701 181.022 169.097 180.78C169.482 180.538 169.768 180.23 169.955 179.834L169.328 179.383C169.174 179.702 168.965 179.944 168.701 180.109C168.437 180.285 168.118 180.362 167.766 180.362C167.502 180.362 167.26 180.318 167.051 180.23C166.842 180.142 166.666 180.021 166.523 179.867C166.38 179.713 166.27 179.537 166.193 179.328C166.116 179.119 166.083 178.888 166.083 178.646V178.382H170.164V177.964C170.164 177.568 170.098 177.194 169.988 176.853C169.878 176.523 169.713 176.226 169.504 175.984C169.284 175.742 169.031 175.544 168.734 175.401C168.426 175.269 168.085 175.192 167.711 175.192C167.315 175.192 166.963 175.269 166.655 175.401C166.347 175.544 166.072 175.742 165.852 176.006C165.632 176.27 165.456 176.578 165.335 176.941C165.214 177.315 165.159 177.722 165.159 178.162C165.159 178.624 165.214 179.031 165.335 179.394C165.456 179.757 165.632 180.065 165.852 180.329C166.072 180.593 166.347 180.791 166.655 180.923C166.963 181.066 167.315 181.132 167.711 181.132ZM167.711 175.929C168.162 175.929 168.525 176.083 168.8 176.391C169.075 176.699 169.218 177.095 169.218 177.601V177.722H166.083V177.645C166.083 177.403 166.116 177.172 166.204 176.963C166.281 176.754 166.391 176.567 166.534 176.413C166.677 176.259 166.853 176.149 167.051 176.061C167.249 175.973 167.469 175.929 167.711 175.929Z" fill="white"/>
<path d="M172.604 181H173.385V180.23H172.549V172.86H171.669V180.087C171.669 180.351 171.746 180.571 171.9 180.747C172.054 180.923 172.296 181 172.604 181Z" fill="white"/>
<path d="M177.376 181H178.256V177.062C178.256 176.886 178.289 176.721 178.366 176.589C178.443 176.457 178.553 176.336 178.685 176.248C178.817 176.16 178.96 176.094 179.125 176.05C179.29 176.006 179.466 175.984 179.642 175.984C180.5 175.984 180.929 176.501 180.929 177.513V181H181.809V177.359C181.809 176.677 181.633 176.138 181.292 175.764C180.951 175.39 180.489 175.192 179.906 175.192C179.477 175.192 179.136 175.291 178.883 175.478C178.63 175.676 178.432 175.929 178.3 176.248H178.256V175.324H177.376V181Z" fill="white"/>
<path d="M185.828 181.132C186.202 181.132 186.554 181.066 186.862 180.923C187.17 180.791 187.445 180.593 187.676 180.329C187.896 180.065 188.072 179.757 188.204 179.394C188.325 179.031 188.391 178.624 188.391 178.162C188.391 177.722 188.325 177.315 188.204 176.941C188.072 176.578 187.896 176.27 187.676 176.006C187.445 175.742 187.17 175.544 186.862 175.401C186.554 175.269 186.202 175.192 185.828 175.192C185.443 175.192 185.091 175.269 184.783 175.401C184.464 175.544 184.189 175.742 183.969 176.006C183.749 176.27 183.573 176.578 183.452 176.941C183.32 177.315 183.265 177.722 183.265 178.162C183.265 178.624 183.32 179.031 183.452 179.394C183.573 179.757 183.749 180.065 183.969 180.329C184.189 180.593 184.464 180.791 184.783 180.923C185.091 181.066 185.443 181.132 185.828 181.132ZM185.828 180.351C185.344 180.351 184.959 180.208 184.662 179.911C184.354 179.625 184.211 179.174 184.211 178.569V177.755C184.211 177.161 184.354 176.71 184.662 176.413C184.959 176.127 185.344 175.973 185.828 175.973C186.301 175.973 186.686 176.127 186.994 176.413C187.291 176.71 187.445 177.161 187.445 177.755V178.569C187.445 179.174 187.291 179.625 186.994 179.911C186.686 180.208 186.301 180.351 185.828 180.351Z" fill="white"/>
<path d="M191.147 181H192.247V180.23H191.092V176.094H192.335V175.324H191.092V173.751H190.3V174.807C190.3 175.005 190.256 175.137 190.19 175.214C190.124 175.291 189.992 175.324 189.805 175.324H189.277V176.094H190.212V180.065C190.212 180.351 190.289 180.571 190.443 180.747C190.597 180.923 190.839 181 191.147 181Z" fill="white"/>
<path d="M200.584 181H201.079V180.23H200.43V177.106C200.43 176.512 200.232 176.039 199.858 175.698C199.473 175.368 198.934 175.192 198.252 175.192C197.735 175.192 197.306 175.302 196.976 175.522C196.635 175.742 196.393 175.995 196.239 176.303L196.767 176.798C196.921 176.545 197.108 176.336 197.339 176.182C197.57 176.028 197.856 175.951 198.208 175.951C198.659 175.951 199 176.061 199.22 176.27C199.44 176.49 199.55 176.798 199.55 177.194V177.755H198.428C197.592 177.755 196.987 177.898 196.591 178.184C196.195 178.47 196.008 178.888 196.008 179.416C196.008 179.944 196.173 180.362 196.503 180.67C196.833 180.978 197.306 181.132 197.911 181.132C198.307 181.132 198.648 181.044 198.934 180.868C199.22 180.692 199.418 180.428 199.55 180.076H199.605C199.638 180.34 199.726 180.56 199.869 180.736C200.012 180.912 200.254 181 200.584 181ZM198.054 180.384C197.702 180.384 197.427 180.307 197.229 180.153C197.031 179.999 196.932 179.79 196.932 179.504V179.273C196.932 178.998 197.042 178.789 197.273 178.635C197.504 178.492 197.878 178.415 198.384 178.415H199.55V179.35C199.55 179.504 199.506 179.636 199.44 179.757C199.363 179.889 199.264 179.999 199.132 180.087C199 180.186 198.835 180.263 198.659 180.307C198.472 180.362 198.274 180.384 198.054 180.384Z" fill="white"/>
<path d="M203.558 181H204.581L206.583 175.324H205.736L204.724 178.14L204.108 180.076H204.053L203.437 178.14L202.447 175.324H201.567L203.558 181Z" fill="white"/>
<path d="M211.802 181H212.297V180.23H211.648V177.106C211.648 176.512 211.45 176.039 211.076 175.698C210.691 175.368 210.152 175.192 209.47 175.192C208.953 175.192 208.524 175.302 208.194 175.522C207.853 175.742 207.611 175.995 207.457 176.303L207.985 176.798C208.139 176.545 208.326 176.336 208.557 176.182C208.788 176.028 209.074 175.951 209.426 175.951C209.877 175.951 210.218 176.061 210.438 176.27C210.658 176.49 210.768 176.798 210.768 177.194V177.755H209.646C208.81 177.755 208.205 177.898 207.809 178.184C207.413 178.47 207.226 178.888 207.226 179.416C207.226 179.944 207.391 180.362 207.721 180.67C208.051 180.978 208.524 181.132 209.129 181.132C209.525 181.132 209.866 181.044 210.152 180.868C210.438 180.692 210.636 180.428 210.768 180.076H210.823C210.856 180.34 210.944 180.56 211.087 180.736C211.23 180.912 211.472 181 211.802 181ZM209.272 180.384C208.92 180.384 208.645 180.307 208.447 180.153C208.249 179.999 208.15 179.79 208.15 179.504V179.273C208.15 178.998 208.26 178.789 208.491 178.635C208.722 178.492 209.096 178.415 209.602 178.415H210.768V179.35C210.768 179.504 210.724 179.636 210.658 179.757C210.581 179.889 210.482 179.999 210.35 180.087C210.218 180.186 210.053 180.263 209.877 180.307C209.69 180.362 209.492 180.384 209.272 180.384Z" fill="white"/>
<path d="M214.048 173.993C214.235 173.993 214.367 173.949 214.455 173.861C214.543 173.773 214.587 173.652 214.587 173.498V173.355C214.587 173.212 214.543 173.091 214.455 173.003C214.367 172.915 214.235 172.86 214.048 172.86C213.85 172.86 213.718 172.915 213.63 173.003C213.542 173.091 213.509 173.212 213.509 173.355V173.498C213.509 173.652 213.542 173.773 213.63 173.861C213.718 173.949 213.85 173.993 214.048 173.993ZM213.608 175.324V181H214.488V175.324H213.608Z" fill="white"/>
<path d="M217.348 181H218.129V180.23H217.293V172.86H216.413V180.087C216.413 180.351 216.49 180.571 216.644 180.747C216.798 180.923 217.04 181 217.348 181Z" fill="white"/>
<path d="M223.59 181H224.085V180.23H223.436V177.106C223.436 176.512 223.238 176.039 222.864 175.698C222.479 175.368 221.94 175.192 221.258 175.192C220.741 175.192 220.312 175.302 219.982 175.522C219.641 175.742 219.399 175.995 219.245 176.303L219.773 176.798C219.927 176.545 220.114 176.336 220.345 176.182C220.576 176.028 220.862 175.951 221.214 175.951C221.665 175.951 222.006 176.061 222.226 176.27C222.446 176.49 222.556 176.798 222.556 177.194V177.755H221.434C220.598 177.755 219.993 177.898 219.597 178.184C219.201 178.47 219.014 178.888 219.014 179.416C219.014 179.944 219.179 180.362 219.509 180.67C219.839 180.978 220.312 181.132 220.917 181.132C221.313 181.132 221.654 181.044 221.94 180.868C222.226 180.692 222.424 180.428 222.556 180.076H222.611C222.644 180.34 222.732 180.56 222.875 180.736C223.018 180.912 223.26 181 223.59 181ZM221.06 180.384C220.708 180.384 220.433 180.307 220.235 180.153C220.037 179.999 219.938 179.79 219.938 179.504V179.273C219.938 178.998 220.048 178.789 220.279 178.635C220.51 178.492 220.884 178.415 221.39 178.415H222.556V179.35C222.556 179.504 222.512 179.636 222.446 179.757C222.369 179.889 222.27 179.999 222.138 180.087C222.006 180.186 221.841 180.263 221.665 180.307C221.478 180.362 221.28 180.384 221.06 180.384Z" fill="white"/>
<path d="M225.396 172.86V181H226.276V180.076H226.32C226.65 180.78 227.211 181.132 227.981 181.132C228.333 181.132 228.652 181.066 228.938 180.923C229.224 180.791 229.466 180.593 229.664 180.329C229.862 180.076 230.016 179.768 230.126 179.394C230.236 179.031 230.291 178.624 230.291 178.162C230.291 177.711 230.236 177.304 230.126 176.93C230.016 176.567 229.862 176.259 229.664 175.995C229.466 175.742 229.224 175.544 228.938 175.401C228.652 175.269 228.333 175.192 227.981 175.192C227.585 175.192 227.244 175.28 226.958 175.456C226.672 175.632 226.463 175.896 226.32 176.248H226.276V172.86H225.396ZM227.739 180.34C227.541 180.34 227.343 180.318 227.167 180.263C226.991 180.219 226.837 180.142 226.705 180.043C226.573 179.944 226.463 179.823 226.386 179.68C226.309 179.537 226.276 179.372 226.276 179.185V177.073C226.276 176.919 226.309 176.776 226.386 176.644C226.463 176.512 226.573 176.391 226.705 176.292C226.837 176.204 226.991 176.127 227.167 176.072C227.343 176.017 227.541 175.984 227.739 175.984C228.234 175.984 228.63 176.149 228.916 176.457C229.202 176.765 229.345 177.172 229.345 177.678V178.646C229.345 179.152 229.202 179.57 228.916 179.878C228.63 180.186 228.234 180.34 227.739 180.34Z" fill="white"/>
<path d="M232.767 181H233.548V180.23H232.712V172.86H231.832V180.087C231.832 180.351 231.909 180.571 232.063 180.747C232.217 180.923 232.459 181 232.767 181Z" fill="white"/>
<path d="M237.018 181.132C237.546 181.132 238.008 181.022 238.404 180.78C238.789 180.538 239.075 180.23 239.262 179.834L238.635 179.383C238.481 179.702 238.272 179.944 238.008 180.109C237.744 180.285 237.425 180.362 237.073 180.362C236.809 180.362 236.567 180.318 236.358 180.23C236.149 180.142 235.973 180.021 235.83 179.867C235.687 179.713 235.577 179.537 235.5 179.328C235.423 179.119 235.39 178.888 235.39 178.646V178.382H239.471V177.964C239.471 177.568 239.405 177.194 239.295 176.853C239.185 176.523 239.02 176.226 238.811 175.984C238.591 175.742 238.338 175.544 238.041 175.401C237.733 175.269 237.392 175.192 237.018 175.192C236.622 175.192 236.27 175.269 235.962 175.401C235.654 175.544 235.379 175.742 235.159 176.006C234.939 176.27 234.763 176.578 234.642 176.941C234.521 177.315 234.466 177.722 234.466 178.162C234.466 178.624 234.521 179.031 234.642 179.394C234.763 179.757 234.939 180.065 235.159 180.329C235.379 180.593 235.654 180.791 235.962 180.923C236.27 181.066 236.622 181.132 237.018 181.132ZM237.018 175.929C237.469 175.929 237.832 176.083 238.107 176.391C238.382 176.699 238.525 177.095 238.525 177.601V177.722H235.39V177.645C235.39 177.403 235.423 177.172 235.511 176.963C235.588 176.754 235.698 176.567 235.841 176.413C235.984 176.259 236.16 176.149 236.358 176.061C236.556 175.973 236.776 175.929 237.018 175.929Z" fill="white"/>
<defs>
<radialGradient id="paint0_radial_1902_9758" cx="0" cy="0" r="1" gradientUnits="userSpaceOnUse" gradientTransform="translate(191 177) rotate(90) scale(146)">
<stop stop-color="#A41A45" stop-opacity="0"/>
<stop offset="1" stop-color="#A41A45" stop-opacity="0.2"/>
</radialGradient>
<radialGradient id="paint1_radial_1902_9758" cx="0" cy="0" r="1" gradientUnits="userSpaceOnUse" gradientTransform="translate(191 177) rotate(90) scale(126)">
<stop stop-color="#A41A45" stop-opacity="0"/>
<stop offset="1" stop-color="#A41A45" stop-opacity="0.2"/>
</radialGradient>
<radialGradient id="paint2_radial_1902_9758" cx="0" cy="0" r="1" gradientUnits="userSpaceOnUse" gradientTransform="translate(191 177) rotate(90) scale(105)">
<stop stop-color="#A41A45" stop-opacity="0"/>
<stop offset="1" stop-color="#A41A45" stop-opacity="0.2"/>
</radialGradient>
</defs>
</svg>
