<svg width="1160" height="132" viewBox="0 0 1160 132" fill="none" xmlns="http://www.w3.org/2000/svg">
<rect width="1160" height="132" fill="black"/>
<path d="M358 26C358 21.5817 361.582 18 366 18H1003C1011.84 18 1019 25.1634 1019 34V34H366C361.582 34 358 30.4183 358 26V26Z" fill="url(#paint0_linear_1901_9345)"/>
<path d="M324 114C324 105.163 331.163 98 340 98H985V98C985 115.673 970.673 130 953 130H340C331.163 130 324 122.837 324 114V114Z" fill="url(#paint1_linear_1901_9345)"/>
<path d="M45 106C45 101.582 48.5817 98 53 98H614V98C614 106.837 606.837 114 598 114H53C48.5817 114 45 110.418 45 106V106Z" fill="url(#paint2_linear_1901_9345)"/>
<path d="M58 26C58 21.5817 61.5817 18 66 18H703C711.837 18 719 25.1634 719 34V34H66C61.5817 34 58 30.4183 58 26V26Z" fill="url(#paint3_linear_1901_9345)"/>
<rect x="80" y="34" width="1000" height="64" rx="32" fill="url(#paint4_linear_1901_9345)"/>
<path d="M528.608 63.1361H531.05V62.3221H525.242V63.1361H527.684V70.0001H528.608V63.1361Z" fill="white"/>
<path d="M532.725 62.9931C532.912 62.9931 533.044 62.9491 533.132 62.8611C533.22 62.7731 533.264 62.6521 533.264 62.4981V62.3551C533.264 62.2121 533.22 62.0911 533.132 62.0031C533.044 61.9151 532.912 61.8601 532.725 61.8601C532.527 61.8601 532.395 61.9151 532.307 62.0031C532.219 62.0911 532.186 62.2121 532.186 62.3551V62.4981C532.186 62.6521 532.219 62.7731 532.307 62.8611C532.395 62.9491 532.527 62.9931 532.725 62.9931ZM532.285 64.3241V70.0001H533.165V64.3241H532.285Z" fill="white"/>
<path d="M535.09 70.0001H535.97V66.0621C535.97 65.8861 536.003 65.7211 536.08 65.5891C536.157 65.4571 536.256 65.3361 536.388 65.2481C536.509 65.1601 536.652 65.0941 536.817 65.0501C536.971 65.0061 537.147 64.9841 537.323 64.9841C537.741 64.9841 538.049 65.1161 538.247 65.3691C538.445 65.6331 538.544 66.0071 538.544 66.5131V70.0001H539.424V66.0621C539.424 65.8861 539.457 65.7211 539.534 65.5891C539.6 65.4571 539.699 65.3361 539.831 65.2481C539.952 65.1601 540.095 65.0941 540.249 65.0501C540.403 65.0061 540.579 64.9841 540.755 64.9841C541.184 64.9841 541.503 65.1161 541.701 65.3691C541.899 65.6331 541.998 66.0071 541.998 66.5131V70.0001H542.878V66.3591C542.878 65.6771 542.713 65.1381 542.383 64.7641C542.053 64.3901 541.602 64.1921 541.03 64.1921C540.546 64.1921 540.161 64.3131 539.875 64.5441C539.589 64.7751 539.402 65.0391 539.303 65.3471H539.281C539.127 64.9401 538.885 64.6431 538.577 64.4671C538.258 64.2911 537.917 64.1921 537.543 64.1921C537.323 64.1921 537.125 64.2251 536.971 64.2801C536.806 64.3351 536.663 64.4121 536.542 64.5001C536.421 64.5991 536.322 64.7091 536.234 64.8411C536.146 64.9731 536.08 65.1051 536.014 65.2481H535.97V64.3241H535.09V70.0001Z" fill="white"/>
<path d="M546.882 70.1321C547.41 70.1321 547.872 70.0221 548.268 69.7801C548.653 69.5381 548.939 69.2301 549.126 68.8341L548.499 68.3831C548.345 68.7021 548.136 68.9441 547.872 69.1091C547.608 69.2851 547.289 69.3621 546.937 69.3621C546.673 69.3621 546.431 69.3181 546.222 69.2301C546.013 69.1421 545.837 69.0211 545.694 68.8671C545.551 68.7131 545.441 68.5371 545.364 68.3281C545.287 68.1191 545.254 67.8881 545.254 67.6461V67.3821H549.335V66.9641C549.335 66.5681 549.269 66.1941 549.159 65.8531C549.049 65.5231 548.884 65.2261 548.675 64.9841C548.455 64.7421 548.202 64.5441 547.905 64.4011C547.597 64.2691 547.256 64.1921 546.882 64.1921C546.486 64.1921 546.134 64.2691 545.826 64.4011C545.518 64.5441 545.243 64.7421 545.023 65.0061C544.803 65.2701 544.627 65.5781 544.506 65.9411C544.385 66.3151 544.33 66.7221 544.33 67.1621C544.33 67.6241 544.385 68.0311 544.506 68.3941C544.627 68.7571 544.803 69.0651 545.023 69.3291C545.243 69.5931 545.518 69.7911 545.826 69.9231C546.134 70.0661 546.486 70.1321 546.882 70.1321ZM546.882 64.9291C547.333 64.9291 547.696 65.0831 547.971 65.3911C548.246 65.6991 548.389 66.0951 548.389 66.6011V66.7221H545.254V66.6451C545.254 66.4031 545.287 66.1721 545.375 65.9631C545.452 65.7541 545.562 65.5671 545.705 65.4131C545.848 65.2591 546.024 65.1491 546.222 65.0611C546.42 64.9731 546.64 64.9291 546.882 64.9291Z" fill="white"/>
<path d="M551.775 70.0001H552.556V69.2301H551.72V61.8601H550.84V69.0871C550.84 69.3511 550.917 69.5711 551.071 69.7471C551.225 69.9231 551.467 70.0001 551.775 70.0001Z" fill="white"/>
<path d="M554.333 62.9931C554.52 62.9931 554.652 62.9491 554.74 62.8611C554.828 62.7731 554.872 62.6521 554.872 62.4981V62.3551C554.872 62.2121 554.828 62.0911 554.74 62.0031C554.652 61.9151 554.52 61.8601 554.333 61.8601C554.135 61.8601 554.003 61.9151 553.915 62.0031C553.827 62.0911 553.794 62.2121 553.794 62.3551V62.4981C553.794 62.6521 553.827 62.7731 553.915 62.8611C554.003 62.9491 554.135 62.9931 554.333 62.9931ZM553.893 64.3241V70.0001H554.773V64.3241H553.893Z" fill="white"/>
<path d="M556.698 70.0001H557.578V66.0621C557.578 65.8861 557.611 65.7211 557.688 65.5891C557.765 65.4571 557.875 65.3361 558.007 65.2481C558.139 65.1601 558.282 65.0941 558.447 65.0501C558.612 65.0061 558.788 64.9841 558.964 64.9841C559.822 64.9841 560.251 65.5011 560.251 66.5131V70.0001H561.131V66.3591C561.131 65.6771 560.955 65.1381 560.614 64.7641C560.273 64.3901 559.811 64.1921 559.228 64.1921C558.799 64.1921 558.458 64.2911 558.205 64.4781C557.952 64.6761 557.754 64.9291 557.622 65.2481H557.578V64.3241H556.698V70.0001Z" fill="white"/>
<path d="M565.139 70.1321C565.667 70.1321 566.129 70.0221 566.525 69.7801C566.91 69.5381 567.196 69.2301 567.383 68.8341L566.756 68.3831C566.602 68.7021 566.393 68.9441 566.129 69.1091C565.865 69.2851 565.546 69.3621 565.194 69.3621C564.93 69.3621 564.688 69.3181 564.479 69.2301C564.27 69.1421 564.094 69.0211 563.951 68.8671C563.808 68.7131 563.698 68.5371 563.621 68.3281C563.544 68.1191 563.511 67.8881 563.511 67.6461V67.3821H567.592V66.9641C567.592 66.5681 567.526 66.1941 567.416 65.8531C567.306 65.5231 567.141 65.2261 566.932 64.9841C566.712 64.7421 566.459 64.5441 566.162 64.4011C565.854 64.2691 565.513 64.1921 565.139 64.1921C564.743 64.1921 564.391 64.2691 564.083 64.4011C563.775 64.5441 563.5 64.7421 563.28 65.0061C563.06 65.2701 562.884 65.5781 562.763 65.9411C562.642 66.3151 562.587 66.7221 562.587 67.1621C562.587 67.6241 562.642 68.0311 562.763 68.3941C562.884 68.7571 563.06 69.0651 563.28 69.3291C563.5 69.5931 563.775 69.7911 564.083 69.9231C564.391 70.0661 564.743 70.1321 565.139 70.1321ZM565.139 64.9291C565.59 64.9291 565.953 65.0831 566.228 65.3911C566.503 65.6991 566.646 66.0951 566.646 66.6011V66.7221H563.511V66.6451C563.511 66.4031 563.544 66.1721 563.632 65.9631C563.709 65.7541 563.819 65.5671 563.962 65.4131C564.105 65.2591 564.281 65.1491 564.479 65.0611C564.677 64.9731 564.897 64.9291 565.139 64.9291Z" fill="white"/>
<path d="M571.751 70.0001H572.631V66.0621C572.631 65.8861 572.664 65.7211 572.741 65.5891C572.818 65.4571 572.928 65.3361 573.06 65.2481C573.192 65.1601 573.335 65.0941 573.5 65.0501C573.665 65.0061 573.841 64.9841 574.017 64.9841C574.875 64.9841 575.304 65.5011 575.304 66.5131V70.0001H576.184V66.3591C576.184 65.6771 576.008 65.1381 575.667 64.7641C575.326 64.3901 574.864 64.1921 574.281 64.1921C573.852 64.1921 573.511 64.2911 573.258 64.4781C573.005 64.6761 572.807 64.9291 572.675 65.2481H572.631V64.3241H571.751V70.0001Z" fill="white"/>
<path d="M580.203 70.1321C580.577 70.1321 580.929 70.0661 581.237 69.9231C581.545 69.7911 581.82 69.5931 582.051 69.3291C582.271 69.0651 582.447 68.7571 582.579 68.3941C582.7 68.0311 582.766 67.6241 582.766 67.1621C582.766 66.7221 582.7 66.3151 582.579 65.9411C582.447 65.5781 582.271 65.2701 582.051 65.0061C581.82 64.7421 581.545 64.5441 581.237 64.4011C580.929 64.2691 580.577 64.1921 580.203 64.1921C579.818 64.1921 579.466 64.2691 579.158 64.4011C578.839 64.5441 578.564 64.7421 578.344 65.0061C578.124 65.2701 577.948 65.5781 577.827 65.9411C577.695 66.3151 577.64 66.7221 577.64 67.1621C577.64 67.6241 577.695 68.0311 577.827 68.3941C577.948 68.7571 578.124 69.0651 578.344 69.3291C578.564 69.5931 578.839 69.7911 579.158 69.9231C579.466 70.0661 579.818 70.1321 580.203 70.1321ZM580.203 69.3511C579.719 69.3511 579.334 69.2081 579.037 68.9111C578.729 68.6251 578.586 68.1741 578.586 67.5691V66.7551C578.586 66.1611 578.729 65.7101 579.037 65.4131C579.334 65.1271 579.719 64.9731 580.203 64.9731C580.676 64.9731 581.061 65.1271 581.369 65.4131C581.666 65.7101 581.82 66.1611 581.82 66.7551V67.5691C581.82 68.1741 581.666 68.6251 581.369 68.9111C581.061 69.2081 580.676 69.3511 580.203 69.3511Z" fill="white"/>
<path d="M585.522 70.0001H586.622V69.2301H585.467V65.0941H586.71V64.3241H585.467V62.7511H584.675V63.8071C584.675 64.0051 584.631 64.1371 584.565 64.2141C584.499 64.2911 584.367 64.3241 584.18 64.3241H583.652V65.0941H584.587V69.0651C584.587 69.3511 584.664 69.5711 584.818 69.7471C584.972 69.9231 585.214 70.0001 585.522 70.0001Z" fill="white"/>
<path d="M594.96 70.0001H595.455V69.2301H594.806V66.1061C594.806 65.5121 594.608 65.0391 594.234 64.6981C593.849 64.3681 593.31 64.1921 592.628 64.1921C592.111 64.1921 591.682 64.3021 591.352 64.5221C591.011 64.7421 590.769 64.9951 590.615 65.3031L591.143 65.7981C591.297 65.5451 591.484 65.3361 591.715 65.1821C591.946 65.0281 592.232 64.9511 592.584 64.9511C593.035 64.9511 593.376 65.0611 593.596 65.2701C593.816 65.4901 593.926 65.7981 593.926 66.1941V66.7551H592.804C591.968 66.7551 591.363 66.8981 590.967 67.1841C590.571 67.4701 590.384 67.8881 590.384 68.4161C590.384 68.9441 590.549 69.3621 590.879 69.6701C591.209 69.9781 591.682 70.1321 592.287 70.1321C592.683 70.1321 593.024 70.0441 593.31 69.8681C593.596 69.6921 593.794 69.4281 593.926 69.0761H593.981C594.014 69.3401 594.102 69.5601 594.245 69.7361C594.388 69.9121 594.63 70.0001 594.96 70.0001ZM592.43 69.3841C592.078 69.3841 591.803 69.3071 591.605 69.1531C591.407 68.9991 591.308 68.7901 591.308 68.5041V68.2731C591.308 67.9981 591.418 67.7891 591.649 67.6351C591.88 67.4921 592.254 67.4151 592.76 67.4151H593.926V68.3501C593.926 68.5041 593.882 68.6361 593.816 68.7571C593.739 68.8891 593.64 68.9991 593.508 69.0871C593.376 69.1861 593.211 69.2631 593.035 69.3071C592.848 69.3621 592.65 69.3841 592.43 69.3841Z" fill="white"/>
<path d="M597.934 70.0001H598.957L600.959 64.3241H600.112L599.1 67.1401L598.484 69.0761H598.429L597.813 67.1401L596.823 64.3241H595.943L597.934 70.0001Z" fill="white"/>
<path d="M606.177 70.0001H606.672V69.2301H606.023V66.1061C606.023 65.5121 605.825 65.0391 605.451 64.6981C605.066 64.3681 604.527 64.1921 603.845 64.1921C603.328 64.1921 602.899 64.3021 602.569 64.5221C602.228 64.7421 601.986 64.9951 601.832 65.3031L602.36 65.7981C602.514 65.5451 602.701 65.3361 602.932 65.1821C603.163 65.0281 603.449 64.9511 603.801 64.9511C604.252 64.9511 604.593 65.0611 604.813 65.2701C605.033 65.4901 605.143 65.7981 605.143 66.1941V66.7551H604.021C603.185 66.7551 602.58 66.8981 602.184 67.1841C601.788 67.4701 601.601 67.8881 601.601 68.4161C601.601 68.9441 601.766 69.3621 602.096 69.6701C602.426 69.9781 602.899 70.1321 603.504 70.1321C603.9 70.1321 604.241 70.0441 604.527 69.8681C604.813 69.6921 605.011 69.4281 605.143 69.0761H605.198C605.231 69.3401 605.319 69.5601 605.462 69.7361C605.605 69.9121 605.847 70.0001 606.177 70.0001ZM603.647 69.3841C603.295 69.3841 603.02 69.3071 602.822 69.1531C602.624 68.9991 602.525 68.7901 602.525 68.5041V68.2731C602.525 67.9981 602.635 67.7891 602.866 67.6351C603.097 67.4921 603.471 67.4151 603.977 67.4151H605.143V68.3501C605.143 68.5041 605.099 68.6361 605.033 68.7571C604.956 68.8891 604.857 68.9991 604.725 69.0871C604.593 69.1861 604.428 69.2631 604.252 69.3071C604.065 69.3621 603.867 69.3841 603.647 69.3841Z" fill="white"/>
<path d="M608.423 62.9931C608.61 62.9931 608.742 62.9491 608.83 62.8611C608.918 62.7731 608.962 62.6521 608.962 62.4981V62.3551C608.962 62.2121 608.918 62.0911 608.83 62.0031C608.742 61.9151 608.61 61.8601 608.423 61.8601C608.225 61.8601 608.093 61.9151 608.005 62.0031C607.917 62.0911 607.884 62.2121 607.884 62.3551V62.4981C607.884 62.6521 607.917 62.7731 608.005 62.8611C608.093 62.9491 608.225 62.9931 608.423 62.9931ZM607.983 64.3241V70.0001H608.863V64.3241H607.983Z" fill="white"/>
<path d="M611.723 70.0001H612.504V69.2301H611.668V61.8601H610.788V69.0871C610.788 69.3511 610.865 69.5711 611.019 69.7471C611.173 69.9231 611.415 70.0001 611.723 70.0001Z" fill="white"/>
<path d="M617.965 70.0001H618.46V69.2301H617.811V66.1061C617.811 65.5121 617.613 65.0391 617.239 64.6981C616.854 64.3681 616.315 64.1921 615.633 64.1921C615.116 64.1921 614.687 64.3021 614.357 64.5221C614.016 64.7421 613.774 64.9951 613.62 65.3031L614.148 65.7981C614.302 65.5451 614.489 65.3361 614.72 65.1821C614.951 65.0281 615.237 64.9511 615.589 64.9511C616.04 64.9511 616.381 65.0611 616.601 65.2701C616.821 65.4901 616.931 65.7981 616.931 66.1941V66.7551H615.809C614.973 66.7551 614.368 66.8981 613.972 67.1841C613.576 67.4701 613.389 67.8881 613.389 68.4161C613.389 68.9441 613.554 69.3621 613.884 69.6701C614.214 69.9781 614.687 70.1321 615.292 70.1321C615.688 70.1321 616.029 70.0441 616.315 69.8681C616.601 69.6921 616.799 69.4281 616.931 69.0761H616.986C617.019 69.3401 617.107 69.5601 617.25 69.7361C617.393 69.9121 617.635 70.0001 617.965 70.0001ZM615.435 69.3841C615.083 69.3841 614.808 69.3071 614.61 69.1531C614.412 68.9991 614.313 68.7901 614.313 68.5041V68.2731C614.313 67.9981 614.423 67.7891 614.654 67.6351C614.885 67.4921 615.259 67.4151 615.765 67.4151H616.931V68.3501C616.931 68.5041 616.887 68.6361 616.821 68.7571C616.744 68.8891 616.645 68.9991 616.513 69.0871C616.381 69.1861 616.216 69.2631 616.04 69.3071C615.853 69.3621 615.655 69.3841 615.435 69.3841Z" fill="white"/>
<path d="M619.771 61.8601V70.0001H620.651V69.0761H620.695C621.025 69.7801 621.586 70.1321 622.356 70.1321C622.708 70.1321 623.027 70.0661 623.313 69.9231C623.599 69.7911 623.841 69.5931 624.039 69.3291C624.237 69.0761 624.391 68.7681 624.501 68.3941C624.611 68.0311 624.666 67.6241 624.666 67.1621C624.666 66.7111 624.611 66.3041 624.501 65.9301C624.391 65.5671 624.237 65.2591 624.039 64.9951C623.841 64.7421 623.599 64.5441 623.313 64.4011C623.027 64.2691 622.708 64.1921 622.356 64.1921C621.96 64.1921 621.619 64.2801 621.333 64.4561C621.047 64.6321 620.838 64.8961 620.695 65.2481H620.651V61.8601H619.771ZM622.114 69.3401C621.916 69.3401 621.718 69.3181 621.542 69.2631C621.366 69.2191 621.212 69.1421 621.08 69.0431C620.948 68.9441 620.838 68.8231 620.761 68.6801C620.684 68.5371 620.651 68.3721 620.651 68.1851V66.0731C620.651 65.9191 620.684 65.7761 620.761 65.6441C620.838 65.5121 620.948 65.3911 621.08 65.2921C621.212 65.2041 621.366 65.1271 621.542 65.0721C621.718 65.0171 621.916 64.9841 622.114 64.9841C622.609 64.9841 623.005 65.1491 623.291 65.4571C623.577 65.7651 623.72 66.1721 623.72 66.6781V67.6461C623.72 68.1521 623.577 68.5701 623.291 68.8781C623.005 69.1861 622.609 69.3401 622.114 69.3401Z" fill="white"/>
<path d="M627.142 70.0001H627.923V69.2301H627.087V61.8601H626.207V69.0871C626.207 69.3511 626.284 69.5711 626.438 69.7471C626.592 69.9231 626.834 70.0001 627.142 70.0001Z" fill="white"/>
<path d="M631.393 70.1321C631.921 70.1321 632.383 70.0221 632.779 69.7801C633.164 69.5381 633.45 69.2301 633.637 68.8341L633.01 68.3831C632.856 68.7021 632.647 68.9441 632.383 69.1091C632.119 69.2851 631.8 69.3621 631.448 69.3621C631.184 69.3621 630.942 69.3181 630.733 69.2301C630.524 69.1421 630.348 69.0211 630.205 68.8671C630.062 68.7131 629.952 68.5371 629.875 68.3281C629.798 68.1191 629.765 67.8881 629.765 67.6461V67.3821H633.846V66.9641C633.846 66.5681 633.78 66.1941 633.67 65.8531C633.56 65.5231 633.395 65.2261 633.186 64.9841C632.966 64.7421 632.713 64.5441 632.416 64.4011C632.108 64.2691 631.767 64.1921 631.393 64.1921C630.997 64.1921 630.645 64.2691 630.337 64.4011C630.029 64.5441 629.754 64.7421 629.534 65.0061C629.314 65.2701 629.138 65.5781 629.017 65.9411C628.896 66.3151 628.841 66.7221 628.841 67.1621C628.841 67.6241 628.896 68.0311 629.017 68.3941C629.138 68.7571 629.314 69.0651 629.534 69.3291C629.754 69.5931 630.029 69.7911 630.337 69.9231C630.645 70.0661 630.997 70.1321 631.393 70.1321ZM631.393 64.9291C631.844 64.9291 632.207 65.0831 632.482 65.3911C632.757 65.6991 632.9 66.0951 632.9 66.6011V66.7221H629.765V66.6451C629.765 66.4031 629.798 66.1721 629.886 65.9631C629.963 65.7541 630.073 65.5671 630.216 65.4131C630.359 65.2591 630.535 65.1491 630.733 65.0611C630.931 64.9731 631.151 64.9291 631.393 64.9291Z" fill="white"/>
<defs>
<linearGradient id="paint0_linear_1901_9345" x1="358" y1="25.8644" x2="1019" y2="25.8643" gradientUnits="userSpaceOnUse">
<stop stop-color="#A41A45" stop-opacity="0"/>
<stop offset="1" stop-color="#A41A45" stop-opacity="0.2"/>
</linearGradient>
<linearGradient id="paint1_linear_1901_9345" x1="324" y1="113.729" x2="985" y2="113.729" gradientUnits="userSpaceOnUse">
<stop stop-color="#A41A45" stop-opacity="0"/>
<stop offset="1" stop-color="#A41A45" stop-opacity="0.2"/>
</linearGradient>
<linearGradient id="paint2_linear_1901_9345" x1="45" y1="105.864" x2="614" y2="105.864" gradientUnits="userSpaceOnUse">
<stop stop-color="#A41A45" stop-opacity="0"/>
<stop offset="1" stop-color="#A41A45" stop-opacity="0.2"/>
</linearGradient>
<linearGradient id="paint3_linear_1901_9345" x1="58" y1="25.8644" x2="719" y2="25.8643" gradientUnits="userSpaceOnUse">
<stop stop-color="#A41A45" stop-opacity="0"/>
<stop offset="1" stop-color="#A41A45" stop-opacity="0.2"/>
</linearGradient>
<linearGradient id="paint4_linear_1901_9345" x1="80" y1="65.4575" x2="1080" y2="65.4575" gradientUnits="userSpaceOnUse">
<stop stop-color="#A41A45" stop-opacity="0"/>
<stop offset="1" stop-color="#A41A45" stop-opacity="0.4"/>
</linearGradient>
</defs>
</svg>
