<svg id="Layer_1" data-name="Layer 1" xmlns="http://www.w3.org/2000/svg" viewBox="0 0 837.19 160.96"><defs><style>.cls-1{fill:#36c6f4;}.cls-2{fill:#010101;}.cls-13,.cls-22,.cls-3,.cls-35{fill:#f3f3f3;}.cls-13,.cls-14,.cls-15,.cls-22,.cls-3,.cls-35,.cls-36{stroke:#010101;}.cls-14,.cls-15,.cls-22,.cls-3,.cls-31,.cls-35,.cls-37,.cls-38,.cls-40,.cls-41{stroke-miterlimit:10;}.cls-3,.cls-36{stroke-width:0.5px;}.cls-4{fill:#a378b5;}.cls-5{fill:#77ccce;}.cls-6{fill:#f68a5f;}.cls-7{fill:#ccaed3;}.cls-8{fill:#00a99d;}.cls-9{fill:#ec2227;}.cls-10{fill:#046937;}.cls-11{fill:#ef4e94;}.cls-12{fill:#55a4db;}.cls-13{stroke-miterlimit:10;}.cls-14,.cls-37,.cls-38,.cls-41{fill:none;}.cls-15,.cls-21{fill:#6abd45;}.cls-15{stroke-linecap:round;}.cls-16{fill:#b1357d;}.cls-17{fill:#b9539f;}.cls-18{fill:#7d277d;}.cls-19{fill:#70cddd;}.cls-20{fill:#fbb03c;}.cls-23{fill:#d0ca7a;}.cls-24{fill:#f3777c;}.cls-25,.cls-31,.cls-32,.cls-33,.cls-34,.cls-40,.cls-42{fill:#fff;}.cls-26{fill:#faed24;}.cls-27{fill:#079247;}.cls-28{fill:#ed2079;}.cls-29{fill:#f15b27;}.cls-30{fill:#b67eb7;}.cls-31,.cls-37,.cls-38,.cls-40,.cls-41{stroke:#fff;}.cls-31,.cls-37,.cls-38,.cls-41{stroke-width:2px;}.cls-32{font-size:14.82px;}.cls-32,.cls-33,.cls-42,.cls-44{font-family:ArialMT, Arial;}.cls-33{font-size:13.58px;}.cls-34,.cls-44{font-size:18px;}.cls-34{font-family:Arial-BoldMT, Arial;font-weight:700;}.cls-35{stroke-width:0.75px;}.cls-36{fill:#b4b4b4;stroke-miterlimit:10;}.cls-38{stroke-dasharray:1.95 1.95;}.cls-39{letter-spacing:-0.06em;}.cls-40{stroke-width:3px;}.cls-41{stroke-dasharray:1.98 1.98;}.cls-42{font-size:12px;}.cls-43{letter-spacing:-0.06em;}.cls-44{fill:#231f20;}</style></defs><rect class="cls-1" x="176.38" width="573.52" height="72.71"/><path id="Path_340" data-name="Path 340" class="cls-2" d="M453.44,138.56" transform="translate(-38.65 -41.32)"/><g id="Path_342" data-name="Path 342"><path class="cls-3" d="M443.74,174.35a19.71,19.71,0,0,1-5.55-.75,12.84,12.84,0,0,1-8.51-7.31,27.24,27.24,0,0,1-1.92-5.89A52.43,52.43,0,0,1,426.7,144a26.27,26.27,0,0,1,2.06-8.51l.17-.35a15.38,15.38,0,0,1,6.15-6.53,17.71,17.71,0,0,1,12.58-2,16.53,16.53,0,0,1,3.62,1.26,15.85,15.85,0,0,1,6.31,5.51,14.33,14.33,0,0,1,2.47,7.7,7.74,7.74,0,0,1-1.45,4.17,22,22,0,0,1-3.66,4.27,41.91,41.91,0,0,1-9.09,6.43l-.43.22.43.21a2,2,0,0,0,.8.17h0c1.27,0,2.92-1.06,4.82-2.29,2.24-1.43,4.78-3.07,7-3.07a4,4,0,0,1,3,1.31,2.54,2.54,0,0,1,.39,1.8c-.07,2-1.07,5.49-2.64,9.2-1.49,3.49-3.12,6.33-4.17,7.24a13.38,13.38,0,0,1-4.7,2.56,21.14,21.14,0,0,1-5.47,1h-.48Z" transform="translate(-38.65 -41.32)"/><path class="cls-3" d="M443.74,174.12H445a21.11,21.11,0,0,0,5.41-1,13.19,13.19,0,0,0,4.62-2.52c1-.87,2.68-3.75,4.1-7.16a29.9,29.9,0,0,0,2.62-9.11,2.36,2.36,0,0,0-.32-1.62,3.86,3.86,0,0,0-2.85-1.25c-2.21,0-4.7,1.62-6.93,3.05-1.94,1.24-3.6,2.31-4.94,2.31a2.09,2.09,0,0,1-.89-.19l-.87-.41.86-.44a41.71,41.71,0,0,0,9-6.39,22.18,22.18,0,0,0,3.64-4.22,7.59,7.59,0,0,0,1.4-4,14.07,14.07,0,0,0-2.42-7.56,15.64,15.64,0,0,0-6.22-5.44,16.75,16.75,0,0,0-3.57-1.23,17,17,0,0,0-3.69-.41,17.45,17.45,0,0,0-4.55.61,16.65,16.65,0,0,0-4.18,1.74,15.06,15.06,0,0,0-6.05,6.42l-.16.34a25.9,25.9,0,0,0-2,8.43A52,52,0,0,0,428,160.4a26.49,26.49,0,0,0,1.89,5.83,12.64,12.64,0,0,0,8.37,7.2,19.28,19.28,0,0,0,5.49.74m0,.47a16.68,16.68,0,0,1-10.51-3.25c-3.32-2.69-4.8-6.86-5.69-10.89A52.32,52.32,0,0,1,426.5,144a26.57,26.57,0,0,1,2.08-8.58l.16-.35c2.73-5.63,8.87-9,15.21-9a17.13,17.13,0,0,1,7.45,1.69,15.61,15.61,0,0,1,8.91,13.43c.07,5.51-9.12,12.46-14.33,15.09a1.56,1.56,0,0,0,.67.15c2.72,0,7.67-5.37,11.87-5.37a4.22,4.22,0,0,1,3.17,1.34c2.16,2.2-3.72,16.22-6.43,18.59s-6.56,3.35-10.29,3.58h-.49Z" transform="translate(-38.65 -41.32)"/></g><path id="Path_344" data-name="Path 344" class="cls-4" d="M446.25,146.93c-.79,0-1.42-1.26-1.42-2.8s.63-2.81,1.42-2.81,1.41,1.26,1.41,2.81-.63,2.8-1.41,2.8" transform="translate(-38.65 -41.32)"/><path id="Path_345" data-name="Path 345" class="cls-5" d="M452.71,140.28a2.65,2.65,0,1,1-2.68-2.73h0a2.68,2.68,0,0,1,2.64,2.73h0" transform="translate(-38.65 -41.32)"/><path id="Path_346" data-name="Path 346" class="cls-6" d="M448.13,145a1.18,1.18,0,0,1,1.29-1.09h.05a1.21,1.21,0,0,1,1,1.08" transform="translate(-38.65 -41.32)"/><ellipse id="Ellipse_140" data-name="Ellipse 140" class="cls-7" cx="406.73" cy="98.41" rx="1.25" ry="0.8"/><path id="Path_347" data-name="Path 347" class="cls-6" d="M449.36,133.74a1.13,1.13,0,0,1,1.18,1.09" transform="translate(-38.65 -41.32)"/><path id="Path_348" data-name="Path 348" class="cls-6" d="M450.54,134.83a1.19,1.19,0,1,1-1.35-1.08h.14" transform="translate(-38.65 -41.32)"/><path id="Path_349" data-name="Path 349" class="cls-8" d="M450.71,137.26a.67.67,0,0,1-.78-.54h0a.67.67,0,0,1,.49-.81h0a.66.66,0,0,1,.28,0" transform="translate(-38.65 -41.32)"/><ellipse id="Ellipse_141" data-name="Ellipse 141" class="cls-9" cx="403.4" cy="94.88" rx="1.46" ry="1.13"/><ellipse id="Ellipse_142" data-name="Ellipse 142" class="cls-10" cx="442.01" cy="138.92" rx="0.62" ry="0.86" transform="translate(-37.48 240.18) rotate(-35.37)"/><ellipse id="Ellipse_143" data-name="Ellipse 143" class="cls-11" cx="445.93" cy="136.57" rx="1.7" ry="2.11" transform="translate(-58.4 120.74) rotate(-20.16)"/><ellipse id="Ellipse_144" data-name="Ellipse 144" class="cls-12" cx="441.77" cy="141.94" rx="1.79" ry="2.2" transform="translate(-60.62 116.64) rotate(-19.79)"/><g id="Group_66" data-name="Group 66"><ellipse id="Ellipse_118" data-name="Ellipse 118" class="cls-13" cx="529.34" cy="148.51" rx="24.21" ry="18.2" transform="translate(341.62 636.38) rotate(-89.94)"/><line id="Line_11" data-name="Line 11" class="cls-14" x1="494.01" y1="83.39" x2="490.89" y2="115.3"/></g><path id="Path_343" data-name="Path 343" class="cls-15" d="M520.68,139.78" transform="translate(-38.65 -41.32)"/><ellipse id="Ellipse_130" data-name="Ellipse 130" class="cls-16" cx="519.52" cy="141.6" rx="1.07" ry="0.76" transform="translate(163.03 534.94) rotate(-69.07)"/><ellipse id="Ellipse_131" data-name="Ellipse 131" class="cls-6" cx="522.64" cy="136.84" rx="1.07" ry="0.76" transform="translate(169.48 534.8) rotate(-69.07)"/><ellipse id="Ellipse_132" data-name="Ellipse 132" class="cls-6" cx="524.52" cy="138.1" rx="1.07" ry="0.76" transform="translate(169.5 537.36) rotate(-69.07)"/><ellipse id="Ellipse_133" data-name="Ellipse 133" class="cls-17" cx="521.92" cy="145.52" rx="2.41" ry="1.9" transform="translate(194.31 562.54) rotate(-73.35)"/><ellipse id="Ellipse_134" data-name="Ellipse 134" class="cls-5" cx="527.24" cy="134.72" rx="2.41" ry="1.9" transform="translate(208.46 559.94) rotate(-73.35)"/><ellipse id="Ellipse_135" data-name="Ellipse 135" class="cls-18" cx="516.86" cy="142.2" rx="1.54" ry="1.47" transform="translate(43.47 414.51) rotate(-51.19)"/><ellipse id="Ellipse_136" data-name="Ellipse 136" class="cls-19" cx="522.28" cy="141.19" rx="1.57" ry="1.44" transform="translate(39.22 408.43) rotate(-49.9)"/><ellipse id="Ellipse_137" data-name="Ellipse 137" class="cls-20" cx="517.04" cy="147.57" rx="2.57" ry="1.65" transform="translate(245.14 590.71) rotate(-80.22)"/><ellipse id="Ellipse_138" data-name="Ellipse 138" class="cls-21" cx="519.86" cy="132.54" rx="1.54" ry="1.47" transform="translate(52.11 413.25) rotate(-51.19)"/><ellipse id="Ellipse_139" data-name="Ellipse 139" class="cls-21" cx="525" cy="148.22" rx="1.54" ry="1.47" transform="translate(41.81 423.1) rotate(-51.19)"/><g id="Group_65" data-name="Group 65"><path id="Path_338" data-name="Path 338" class="cls-22" d="M636,147.75c4.19,3.95,4,2.28,3.32,9.33-.74,7.3-8.67,14.44-15.82,14.45a15.35,15.35,0,0,1-7.86-2.75c-5.32-3.56-7-8.14-7.17-9.58-1-6.23,3.94-11.45,5.24-12.76a.15.15,0,0,0,0-.2h0a26.83,26.83,0,0,1-2.43-3.11A14.22,14.22,0,0,1,610,135c.67-6.57,7.61-11.82,14.89-11.32,8.22.56,13.39,8.26,15.22,13.48,4.31,12.38,3.67,18.42-1.39,13.05m-19.24,7.15a3.12,3.12,0,0,0,2.32,2.25,2.81,2.81,0,0,0,2.31-.62c.94-1-.08-2.56-.91-3.35a5.89,5.89,0,0,0-3.19-1.35.16.16,0,0,0-.18.09,3.51,3.51,0,0,0-.35,3Zm7.27-17.82c0-.07,6.6,6.79,9,8.17.16.09.35-.1.23-.24q-2.13-2.44-4.34-4.84c-1.35-1.43-2.82-3.54-4.86-4.19-.2-.06-.59-.19-.77,0s.18.59.36.76l.41.34" transform="translate(-38.65 -41.32)"/></g><path id="Path_339" data-name="Path 339" class="cls-2" d="M629,158" transform="translate(-38.65 -41.32)"/><ellipse id="Ellipse_123" data-name="Ellipse 123" class="cls-5" cx="624.31" cy="133.15" rx="2.46" ry="2.88" transform="translate(129.73 538.63) rotate(-56.46)"/><ellipse id="Ellipse_124" data-name="Ellipse 124" class="cls-6" cx="625.92" cy="128.43" rx="0.98" ry="1.29" transform="translate(150.81 553.77) rotate(-58.51)"/><ellipse id="Ellipse_125" data-name="Ellipse 125" class="cls-23" cx="629.63" cy="127.66" rx="1.12" ry="2.89" transform="translate(236.2 621.93) rotate(-67.94)"/><ellipse id="Ellipse_126" data-name="Ellipse 126" class="cls-8" cx="626.41" cy="130.46" rx="0.6" ry="0.87" transform="translate(156.03 561.39) rotate(-59.33)"/><ellipse id="Ellipse_127" data-name="Ellipse 127" class="cls-24" cx="629.66" cy="131.48" rx="1.73" ry="2.04" transform="translate(-44.2 191.51) rotate(-20.86)"/><ellipse id="Ellipse_128" data-name="Ellipse 128" class="cls-11" cx="634.28" cy="131.38" rx="1.73" ry="2.04" transform="translate(-43.86 193.15) rotate(-20.86)"/><ellipse id="Ellipse_129" data-name="Ellipse 129" class="cls-20" cx="633.14" cy="135.67" rx="2.19" ry="3" transform="translate(309.89 675.97) rotate(-76.02)"/><path id="Path_336" data-name="Path 336" class="cls-25" d="M483.06,90.06" transform="translate(-38.65 -41.32)"/><path class="cls-22" d="M328.2,141.39a13.83,13.83,0,0,0-.67-4,15,15,0,0,0-2.68-4.7,16.67,16.67,0,0,0-3.36-3.35,13.43,13.43,0,0,0-6-2.69,16,16,0,0,0-4,0,14.41,14.41,0,0,0-8.06,2.69,15.9,15.9,0,0,0-2.68,2,14.78,14.78,0,0,0-3.36,4.7,20.2,20.2,0,0,0-1.34,4.7,25.72,25.72,0,0,0-.67,4.7v8.73a18.24,18.24,0,0,0,.67,3.35c.37,1.51.53,2.28.67,2.69,1,3,.72,3.05,1.34,4.7a12.78,12.78,0,0,0,4,6,13.74,13.74,0,0,0,4,2c.53.15.62.14,2.68.67,2.4.61,2.29.6,2.69.67a13.61,13.61,0,0,0,4,0,33.17,33.17,0,0,0,4.7-1.34,10.53,10.53,0,0,0,3.35-2,11.72,11.72,0,0,0,2-2.68,9.68,9.68,0,0,0,1.34-2.69,6.82,6.82,0,0,0,0-3.36,9.62,9.62,0,0,0-1.34-2.68c-.83-1.34-1.07-1.34-1.34-2a5.09,5.09,0,0,1,0-3.35,19.31,19.31,0,0,1,2-4.7A17.94,17.94,0,0,0,328.2,141.39Z" transform="translate(-38.65 -41.32)"/><ellipse id="Ellipse_119" data-name="Ellipse 119" class="cls-26" cx="273.58" cy="96.87" rx="2.07" ry="1.34"/><ellipse id="Ellipse_120" data-name="Ellipse 120" class="cls-27" cx="317.21" cy="136.17" rx="2.02" ry="1.38" transform="translate(-63.15 45.9) rotate(-15.08)"/><ellipse id="Ellipse_121" data-name="Ellipse 121" class="cls-28" cx="277.31" cy="100.23" rx="2.49" ry="2.01"/><ellipse id="Ellipse_122" data-name="Ellipse 122" class="cls-29" cx="312.91" cy="133.95" rx="2.79" ry="1.48" transform="translate(-65.46 113.68) rotate(-26.72)"/><path id="Path_336-2" data-name="Path 336" class="cls-30" d="M393.26,166.82" transform="translate(-38.65 -41.32)"/><g id="Path_337" data-name="Path 337"><path class="cls-3" d="M392.86,173.63a20,20,0,0,1-5.55-.75,12.9,12.9,0,0,1-8.52-7.32,27,27,0,0,1-1.91-5.88,52.18,52.18,0,0,1-1.06-16.39,26.06,26.06,0,0,1,2.05-8.51l.16-.34a15.29,15.29,0,0,1,6.16-6.53,17.68,17.68,0,0,1,12.58-2,16.71,16.71,0,0,1,3.62,1.26,15.88,15.88,0,0,1,6.31,5.52,13.78,13.78,0,0,1,.2,15.42,15.68,15.68,0,0,1-6.17,5.62l-.43.21.43.21A16.38,16.38,0,0,1,405,157a9.06,9.06,0,0,1,2.57,4,7.76,7.76,0,0,1-.28,4.92,10.46,10.46,0,0,1-3,4.2,14.49,14.49,0,0,1-4.7,2.54,21,21,0,0,1-5.44,1h-.49Z" transform="translate(-38.65 -41.32)"/><path class="cls-3" d="M392.86,173.4h1.21a20.85,20.85,0,0,0,5.37-1,14.1,14.1,0,0,0,4.64-2.5,10.14,10.14,0,0,0,3-4.1,7.5,7.5,0,0,0,.26-4.77,8.65,8.65,0,0,0-2.51-3.86,15.7,15.7,0,0,0-4.16-2.76l-.87-.42.87-.43A15.49,15.49,0,0,0,406.7,148a13.56,13.56,0,0,0-.19-15.16,15.65,15.65,0,0,0-6.23-5.43,16.07,16.07,0,0,0-3.57-1.24,16.86,16.86,0,0,0-3.68-.4,17.44,17.44,0,0,0-4.55.6,17.1,17.1,0,0,0-4.19,1.74,15.06,15.06,0,0,0-6,6.43l-.16.33a26.13,26.13,0,0,0-2,8.43,52.35,52.35,0,0,0,1.06,16.32,26.68,26.68,0,0,0,1.9,5.83,12.63,12.63,0,0,0,8.37,7.19,19.53,19.53,0,0,0,5.48.75m0,.47a16.6,16.6,0,0,1-10.5-3.26c-3.36-2.68-4.8-6.86-5.7-10.88a52.94,52.94,0,0,1-1.06-16.46,26.7,26.7,0,0,1,2.08-8.58c.06-.12.11-.24.17-.35,2.72-5.63,8.87-9,15.21-9a17.08,17.08,0,0,1,7.44,1.68,15.59,15.59,0,0,1,8.91,13.43A15.43,15.43,0,0,1,400.87,154c3.11,1.47,6,3.8,6.91,6.92,1,3.35-.6,7-3.35,9.4s-6.56,3.35-10.3,3.58h-1.25Z" transform="translate(-38.65 -41.32)"/></g><ellipse id="Ellipse_119-2" data-name="Ellipse 119" class="cls-26" cx="354.69" cy="96.69" rx="2.07" ry="1.34"/><ellipse id="Ellipse_120-2" data-name="Ellipse 120" class="cls-27" cx="398.33" cy="135.99" rx="2.02" ry="1.38" transform="translate(-60.31 67) rotate(-15.08)"/><ellipse id="Ellipse_121-2" data-name="Ellipse 121" class="cls-28" cx="358.43" cy="100.05" rx="2.49" ry="2.01"/><ellipse id="Ellipse_122-2" data-name="Ellipse 122" class="cls-29" cx="394.03" cy="133.77" rx="2.79" ry="1.48" transform="translate(-56.72 150.13) rotate(-26.72)"/><line class="cls-31" x1="32.46" y1="60.59" x2="146.16" y2="60.59"/><line class="cls-31" x1="33.85" y1="53.59" x2="33.85" y2="69.26"/><line class="cls-31" x1="273.67" y1="53.22" x2="273.67" y2="68.89"/><line class="cls-31" x1="147.24" y1="53.31" x2="147.24" y2="68.98"/><line class="cls-31" x1="353.41" y1="53.41" x2="353.41" y2="69.08"/><line class="cls-31" x1="403.09" y1="53.5" x2="403.09" y2="69.17"/><text class="cls-32" transform="translate(551.93 156.15)">Three-fold</text><text class="cls-33" transform="translate(18.91 121.43)">20ºC</text><text class="cls-34" transform="translate(140.23 50.18)">70</text><text class="cls-34" transform="translate(261.65 50.18)">345</text><text class="cls-32" transform="translate(116.89 156.01)">Four Cell</text><path class="cls-35" d="M177.94,137.15c-2.7-2.93-3.28-6.15-3.7-8.71-.29-1.78-.42-2.68,0-3.55.94-1.92,3.43-2.53,5.3-3a20.93,20.93,0,0,1,10.7.45c2.32.63,4.18,1.15,5.9,2.75a8.35,8.35,0,0,1,2.59,4.36,8,8,0,0,1-1.23,6.07c-1.71,2.36-4.32,2.94-8.12,3.79-2.89.64-6.37,1.41-9.35-.35A8.6,8.6,0,0,1,177.94,137.15Z" transform="translate(-38.65 -41.32)"/><path class="cls-35" d="M171.29,138.18c-.63,1.11-.9,2.27-1,4.93a27.3,27.3,0,0,0,.12,5.15,14.17,14.17,0,0,0,1.72,5.85,6.36,6.36,0,0,0,7.26,3.55c1.87-.42,2.19-1.47,6.28-6.19,2.71-3.13,3.54-3.79,3.69-5.38A5.19,5.19,0,0,0,187.9,142c-1.45-1.4-2.84,0-6.15-1.26a9.47,9.47,0,0,1-4.43-2.64,4.32,4.32,0,0,0-1.72-1.6,3.64,3.64,0,0,0-2.59,0A3.6,3.6,0,0,0,171.29,138.18Z" transform="translate(-38.65 -41.32)"/><path class="cls-35" d="M174.24,159.27c-.89,1-.5,2.53.13,4.92.56,2.15.87,3.35,2,4.59,1.89,2.13,4.58,2.67,6.15,3a17.22,17.22,0,0,0,5.29.11c2.92-.25,4.56-.39,6.15-1.49,1.17-.81,1.81-2,3.07-4.35,1.66-3.09,1.46-4.36,1.24-5-.16-.48-.22-.94-.62-1.15-1-.52-2.14,1.17-4.67,1.72a9.58,9.58,0,0,1-4.8-.35,31.61,31.61,0,0,1-3.45-1.48,17.5,17.5,0,0,0-2.58-1.15,10.38,10.38,0,0,0-3.57-.34C176.38,158.34,175,158.4,174.24,159.27Z" transform="translate(-38.65 -41.32)"/><path class="cls-35" d="M199.71,143.8c0,2.72.23,2.06.25,5.95,0,3.65-.18,4.8-.62,5.85a7.2,7.2,0,0,1-2,3,10,10,0,0,1-2.7,1.26,11.38,11.38,0,0,1-2.71.8,11.72,11.72,0,0,1-6.77-1.72c-.72-.49-1.12-.7-1.35-1.14-.5-1,.1-2.13.49-2.87.63-1.17,1.16-1.45,3-3.32a14.43,14.43,0,0,0,2.58-3.1,5.83,5.83,0,0,0,.74-3.78,13.49,13.49,0,0,0-1.23-2.86h0a3.35,3.35,0,0,1,0-1.49c.4-1,2.44-.17,4.8-1.26,1.45-.68,1.82-1.51,3.07-1.49a3,3,0,0,1,1.72.57C200.12,139.09,199.76,140.68,199.71,143.8Z" transform="translate(-38.65 -41.32)"/><ellipse id="Ellipse_117" data-name="Ellipse 117" class="cls-36" cx="190.82" cy="155.23" rx="2.61" ry="2.93" transform="translate(-3.36 304.48) rotate(-89.91)"/><ellipse id="Ellipse_117-2" data-name="Ellipse 117" class="cls-36" cx="180.74" cy="147.92" rx="2.61" ry="2.93" transform="translate(-6.11 287.1) rotate(-89.91)"/><ellipse id="Ellipse_117-3" data-name="Ellipse 117" class="cls-36" cx="183.89" cy="165.85" rx="2.61" ry="2.93" transform="translate(-20.89 308.16) rotate(-89.91)"/><ellipse id="Ellipse_117-4" data-name="Ellipse 117" class="cls-36" cx="185.15" cy="131.82" rx="2.61" ry="2.93" transform="translate(14.39 275.45) rotate(-89.91)"/><line class="cls-31" x1="192.94" y1="60.78" x2="586.04" y2="60.78"/><line class="cls-25" x1="146.2" y1="60.68" x2="192.94" y2="60.68"/><line class="cls-37" x1="146.2" y1="60.68" x2="147.2" y2="60.68"/><line class="cls-38" x1="149.14" y1="60.68" x2="190.97" y2="60.68"/><line class="cls-37" x1="191.94" y1="60.68" x2="192.94" y2="60.68"/><line class="cls-31" x1="585.99" y1="53.13" x2="585.99" y2="68.8"/><text class="cls-32" transform="translate(464.93 156.15)"><tspan class="cls-39">T</tspan><tspan x="8.23" y="0">wo-fold</tspan></text><text class="cls-32" transform="translate(383.15 156.15)">1.5-fold</text><text class="cls-32" transform="translate(320.01 156.15)">Comma</text><text class="cls-32" transform="translate(256.07 156.15)">Bean</text><text class="cls-34" transform="translate(481.21 50.18)">455</text><text class="cls-34" transform="translate(391.07 50.18)">415</text><text class="cls-34" transform="translate(341.4 50.18)">390</text><text class="cls-34" transform="translate(573.97 50.18)">510</text><line class="cls-40" x1="682.99" y1="52.66" x2="682.99" y2="68.33"/><text class="cls-34" transform="translate(666.87 50.18)">800</text><text class="cls-32" transform="translate(643.16 155.15)">Hatching/L1</text><path class="cls-22" d="M725.32,174.07a1.06,1.06,0,0,0,.16-.51,1.74,1.74,0,0,0-.41-1c-.34-.52-.51-.78-.73-1.06-.53-.71-.62-.74-1-1.25a4.48,4.48,0,0,1-.63-1.06,4,4,0,0,1-.26-1.43,5.46,5.46,0,0,1,.13-1.51,5.84,5.84,0,0,1,.76-1.76,10.25,10.25,0,0,1,1.26-1.52c.73-.83,1.12-1.27,1.45-1.73a9,9,0,0,0,1.38-3.15,9.93,9.93,0,0,0,.29-2.89,11.27,11.27,0,0,0-.54-2.73,24.79,24.79,0,0,1-1-2.94,9,9,0,0,1,0-2.49,12.5,12.5,0,0,1,.47-2.21c.38-1.27.57-1.36.92-2.52a15.07,15.07,0,0,0,.53-2.67,12.28,12.28,0,0,0,.13-3,9.94,9.94,0,0,0-.82-3,15.06,15.06,0,0,0-2.3-3.18,45.44,45.44,0,0,1-3.34-4.13,19.48,19.48,0,0,1-1.17-2,26.62,26.62,0,0,1-1.07-2.85,15.13,15.13,0,0,0,1.26,5.64c.43,1,1,2.1,1.39,2.94.9,1.78,1.08,1.87,1.42,2.61a11.16,11.16,0,0,1,.63,6.52c-.07.39-.48,1.72-1.29,4.37a16.9,16.9,0,0,0-.82,2.79,12.48,12.48,0,0,0,.82,5.31,19,19,0,0,1,.69,2.37,9,9,0,0,1,.22,2.61c-.12,1.26-.79,2.37-2.11,4.55a20.61,20.61,0,0,0-1.42,2.34,7.41,7.41,0,0,0-.82,3.61,5.82,5.82,0,0,0,1,3.09,13.34,13.34,0,0,0,2,1.94c2,1.83,1.76,1.59,1.8,1.64a1.08,1.08,0,0,0,.32.27.88.88,0,0,0,.31.12" transform="translate(-38.65 -41.32)"/><line class="cls-25" x1="587.01" y1="60.87" x2="681.88" y2="60.87"/><line class="cls-37" x1="587.01" y1="60.87" x2="588.01" y2="60.87"/><line class="cls-41" x1="589.98" y1="60.87" x2="679.9" y2="60.87"/><line class="cls-37" x1="680.88" y1="60.87" x2="681.88" y2="60.87"/><line class="cls-31" x1="193.22" y1="53.69" x2="193.22" y2="69.36"/><text class="cls-34" transform="translate(181.2 50.18)">300</text><text class="cls-33" transform="translate(4.91 85.1)">min. post<tspan x="-4.91" y="16.3">fertilization</tspan></text><text class="cls-34" transform="translate(31.84 50.18)">0</text><line class="cls-31" x1="493.79" y1="52.52" x2="493.79" y2="68.19"/><line class="cls-31" x1="682.69" y1="60.35" x2="837.19" y2="60.35"/><line class="cls-31" x1="715.63" y1="52.66" x2="715.63" y2="68.33"/><line class="cls-31" x1="779.99" y1="52.66" x2="779.99" y2="68.33"/><line class="cls-31" x1="818.56" y1="52.66" x2="818.56" y2="68.33"/><text class="cls-42" transform="translate(710.3 82.36)">L2</text><text class="cls-42" transform="translate(744.6 82.36)">L3</text><text class="cls-42" transform="translate(773.75 82.36)">L4</text><text class="cls-42" transform="translate(803.84 82.36)">Adult</text><line class="cls-31" x1="449.01" y1="52.52" x2="449.01" y2="68.19"/><text class="cls-34" transform="translate(433.99 50.18)">435</text><text class="cls-42" transform="translate(423.99 86.61)"><tspan class="cls-43">T</tspan><tspan x="6.67" y="0">witching</tspan></text><line class="cls-31" x1="750.43" y1="52.66" x2="750.43" y2="68.33"/><text class="cls-44" transform="translate(336.51 21.34)">Promoter expression: 259 m.p.f.- L3</text></svg>