<svg width="11" height="12" viewBox="0 0 11 12" fill="none" xmlns="http://www.w3.org/2000/svg">
<path d="M5.49742 2.9948C6.31893 2.9948 6.98544 2.32409 6.98544 1.4974C6.98544 0.670711 6.31893 0 5.49742 0C4.6759 0 4.00939 0.670711 4.00939 1.4974C4.00939 2.32929 4.67074 2.9948 5.49742 2.9948ZM5.49742 2.2773C5.06858 2.2773 4.7224 1.92894 4.7224 1.4974C4.7224 1.07106 5.06858 0.717504 5.49742 0.717504C5.92109 0.717504 6.27243 1.07106 6.27243 1.4974C6.27243 1.92894 5.92109 2.2773 5.49742 2.2773ZM9.89948 4.80416C10.3335 4.80416 10.6848 4.45061 10.6848 4.01386C10.6848 3.57712 10.3335 3.21837 9.89948 3.21837C9.46548 3.21837 9.10897 3.57712 9.10897 4.01386C9.10897 4.45061 9.46548 4.80416 9.89948 4.80416ZM1.10052 4.80416C1.53452 4.80416 1.89103 4.45061 1.89103 4.01386C1.89103 3.57712 1.53452 3.21837 1.10052 3.21837C0.66651 3.21837 0.310005 3.57712 0.310005 4.01386C0.310005 4.45061 0.66651 4.80416 1.10052 4.80416ZM5.49742 7.00347C5.93659 7.00347 6.28793 6.64991 6.28793 6.21317C6.28793 5.77643 5.93659 5.41768 5.49742 5.41768C5.06341 5.41768 4.71207 5.77643 4.71207 6.21317C4.71207 6.64991 5.06341 7.00347 5.49742 7.00347ZM1.49319 10.0243C2.3147 10.0243 2.97605 9.34835 2.97605 8.52166C2.97605 7.69497 2.3147 7.02946 1.49319 7.02946C0.671677 7.02946 0 7.69497 0 8.52166C0 9.35355 0.661343 10.0243 1.49319 10.0243ZM9.51198 10.0243C10.3335 10.0243 11 9.34835 11 8.52166C11 7.69497 10.3335 7.02946 9.51198 7.02946C8.69046 7.02946 8.02395 7.69497 8.02395 8.52166C8.02395 9.35355 8.6853 10.0243 9.51198 10.0243ZM1.49319 9.30676C1.06435 9.30676 0.713011 8.95321 0.713011 8.52166C0.713011 8.09532 1.06435 7.74697 1.49319 7.74697C1.91686 7.74697 2.26303 8.09532 2.26303 8.52166C2.26303 8.95321 1.91686 9.30676 1.49319 9.30676ZM9.51198 9.30676C9.08314 9.30676 8.73697 8.95321 8.73697 8.52166C8.73697 8.09532 9.08314 7.74697 9.51198 7.74697C9.93565 7.74697 10.287 8.09532 10.287 8.52166C10.287 8.95321 9.93565 9.30676 9.51198 9.30676ZM5.49742 12C5.93659 12 6.28793 11.6412 6.28793 11.2045C6.28793 10.7678 5.93659 10.409 5.49742 10.409C5.06341 10.409 4.71207 10.7678 4.71207 11.2045C4.71207 11.6412 5.06341 12 5.49742 12Z" fill="black" fill-opacity="0.3"/>
</svg>
