<svg width="12" height="14" viewBox="0 0 12 14" fill="none" xmlns="http://www.w3.org/2000/svg">
<path d="M5.99414 7.42383C6.22852 7.42383 6.45703 7.34766 6.73828 7.18359L11.3203 4.52344C11.7949 4.24805 11.9766 4.03125 11.9766 3.70898C11.9766 3.39258 11.7949 3.17578 11.3203 2.90039L6.73828 0.240234C6.45703 0.0761719 6.22852 0 5.99414 0C5.75391 0 5.53125 0.0761719 5.24414 0.240234L0.662109 2.90039C0.1875 3.17578 0.00585938 3.39258 0.00585938 3.70898C0.00585938 4.03125 0.1875 4.24805 0.662109 4.52344L5.24414 7.18359C5.53125 7.34766 5.75391 7.42383 5.99414 7.42383ZM5.99414 10.3125C6.20508 10.3125 6.38672 10.2129 6.63281 10.0664L11.666 7.0957C11.8828 6.96094 11.9824 6.76758 11.9824 6.58594C11.9824 6.3457 11.8066 6.14648 11.6426 6.07031L6.2168 9.20508C6.12891 9.25195 6.05859 9.28711 5.99414 9.28711C5.92383 9.28711 5.85352 9.25195 5.76562 9.20508L0.339844 6.07031C0.175781 6.14648 0 6.3457 0 6.58594C0 6.76758 0.105469 6.9668 0.322266 7.0957L5.34961 10.0664C5.60156 10.2129 5.77734 10.3125 5.99414 10.3125ZM5.99414 13.0078C6.20508 13.0078 6.38672 12.9082 6.63281 12.7617L11.666 9.79102C11.877 9.66797 11.9824 9.46289 11.9824 9.28125C11.9824 9.04102 11.8066 8.84766 11.6426 8.76562L6.2168 11.9062C6.12891 11.9531 6.05859 11.9883 5.99414 11.9883C5.92383 11.9883 5.85352 11.9531 5.76562 11.9062L0.339844 8.76562C0.175781 8.84766 0 9.04102 0 9.28125C0 9.46289 0.105469 9.66797 0.322266 9.79102L5.34961 12.7617C5.60156 12.9082 5.77734 13.0078 5.99414 13.0078Z" fill="white" fill-opacity="0.8"/>
</svg>
