<?xml version="1.0" encoding="utf-8"?>
<!-- Generator: Adobe Illustrator 24.0.0, SVG Export Plug-In . SVG Version: 6.00 Build 0)  -->
<svg version="1.1" id="Layer_1" xmlns="http://www.w3.org/2000/svg" xmlns:xlink="http://www.w3.org/1999/xlink" x="0px" y="0px"
	 viewBox="0 0 1135 1345" style="enable-background:new 0 0 1135 1345;" xml:space="preserve">
<style type="text/css">
	.st0{fill:#E5898A;}
	.st1{fill:#FFFFFF;}
	.st2{fill:#D948ED;}
	.st3{fill:#15FF69;}
	.st4{fill:#E5BF89;}
	.st5{font-family:'Arial-BoldMT';}
	.st6{font-size:24px;}
</style>
<g id="Layer_1_1_">
	
		<image style="display:none;overflow:visible;enable-background:new    ;" width="1135" height="1345" id="Background" xlink:href="1EE72D77EB537FA1.png" >
	</image>
	
		<image style="display:none;overflow:visible;enable-background:new    ;" width="1135" height="1345" id="Flat__maxY_1_" xlink:href="1EE72D77EB537FA7.png" >
	</image>
</g>
<g id="Layer_2_1_">
	<g>
		<path class="st0" d="M489,297.4c31.3,0.9,63.8,8.5,89.4,27.2c12.2,8.9,21.5,22.4,32,33.4c5.3,5.6,38.9,38.5,26.1,44
			c-4,1.7-8,3.3-12,5c-4,1.8-6.8,0.9-9.4-2.8c-7.5-10.7-15.8-20.9-22.9-31.9c-6.8-10.6-13.9-21.1-24.3-28.4
			c-8.7-6.1-19-9.6-29.4-12.2c-27.1-6.9-55.5-8.5-83.2-4.9c-29.6,3.8-52.3,15-77.1,31c-12.3,7.9-24.5,15.8-36.8,23.7
			c-4.8,3.1-25,19.8-23.6,3.9c0.8-9,1.2-14.6,8.6-20.1c9.6-7.1,22-8.6,31.7-15.3c8.1-5.6,13.3-14,21.5-19.7
			c9.5-6.6,19.6-12.4,30.1-17.1c20.6-9.2,43-14.6,65.5-15.6C479.8,297.3,484.4,297.2,489,297.4z M325.2,384
			c10.4-6.4,20.6-12.3,30.4-18.7c13.6-9,26.5-19.1,40.5-27.4c16.3-9.7,34-16,53.2-17.1c5.1-0.3,10.2-2.1,15.3-2.2
			c17.3-0.1,34.5,0.2,51.8,0.4c0.3,0,0.7,0.1,1,0.2c13.4,3.8,26.7,8.4,40.3,11.4c13.4,2.9,21.6,11.6,29,22c1.9,2.7,3.7,5.5,5.7,8.2
			c8.8,12.3,17.6,24.7,26.6,36.9c0.9,1.2,3,2.5,4.1,2.3c3.3-0.8,6.4-2.4,10.5-4.1c-3.3-4.7-5.6-9-8.8-12.5
			c-14.2-15.9-28.4-31.8-43-47.4c-4.3-4.6-9.4-8.7-14.9-11.6c-33.4-17.3-69.2-22.2-106.2-18.4c-11,1.1-22.2,3.4-32.7,6.9
			c-12.9,4.3-25.6,9.5-36.9,17.7c-7.2,5.3-15.1,9.4-20.5,17c-4.4,6.1-10.5,10.2-18,12.7c-7.2,2.3-13.7,6.8-20.7,9.8
			C325.6,372.8,325,377.8,325.2,384z"/>
		<path class="st0" d="M325.2,384c-0.2-6.2,0.4-11.2,6.6-13.9c7-3,13.5-7.5,20.7-9.8c7.6-2.5,13.6-6.6,18-12.7
			c5.4-7.6,13.3-11.7,20.5-17c11.3-8.3,24-13.5,36.9-17.7c10.5-3.5,21.7-5.7,32.7-6.9c37-3.8,72.8,1,106.2,18.4
			c5.5,2.9,10.7,7,14.9,11.6c14.6,15.5,28.8,31.5,43,47.4c3.1,3.5,5.5,7.8,8.8,12.5c-4.1,1.7-7.2,3.3-10.5,4.1
			c-1.1,0.3-3.2-1.1-4.1-2.3c-9-12.2-17.8-24.6-26.6-36.9c-1.9-2.7-3.7-5.5-5.7-8.2c-7.4-10.3-15.6-19-29-22
			c-13.6-3-26.9-7.5-40.3-11.4c-0.3-0.1-0.6-0.2-1-0.2c-17.3-0.2-34.5-0.5-51.8-0.4c-5.1,0-10.2,1.9-15.3,2.2
			c-19.2,1.1-37,7.4-53.2,17.1c-14,8.3-26.9,18.4-40.5,27.4C345.8,371.8,335.6,377.7,325.2,384z"/>
	</g>
</g>
<g id="Layer_4">
	<path class="st1" d="M333.5,560.5"/>
	<g>
		<path class="st2" d="M481.3,488.2c-1.4,21.4-22.6,43.7-42.5,49.7c-13.6,4.1-27.1,3.4-38.7,12.8c-8.2,6.7-1.3,16.3-1.3,25
			c-0.1,9.5-2.4,19.1-6.9,27.5c-2.7,4.9-6.2,9.6-11,12.5c-4.7,2.9-10.4,3.8-15.9,4.6c-7.3,1-14.9,1.7-22-0.3
			c-12.9-3.6-22.4-16.2-23.9-29.5c-1.5-13.4,4.2-26.9,13.6-36.6c19.9-20.5,51.1-19.7,75.1-32.5c9.7-5.2,18.4-12.3,28.5-16.6
			c11.5-5,23.4-8.4,21.9-23.7c-0.1-1.1-0.5-2.3-1.2-3.2c-11.7-16.4-24.9-31.1-43.6-40.1c-4.2-2-9.4-4.7-11.2-8.5
			c-3.6-7.5-6.8-15.8-5.3-24.5c1-5.8,6.6-4.7,10.5-5.6c3.6-0.8,5.3,2.1,5.4,5.1c0.3,11.2,7.7,16.5,16.6,20.8
			c20.3,9.9,32.8,22.5,44.8,41.4c2.3,3.7,4.7,7.5,6,11.7C481.2,481.4,481.5,484.8,481.3,488.2z"/>
		<path class="st2" d="M593.6,480.1c0.1,0.2,0.3,0.4,0.5,0.5c0.7,0.4,1.6,0.4,2.4,0.3c8.4-0.8,47.3,3.2,40,17.5
			c-6.4,12.5-10.3,25.6-6.7,39.5c1.6,6.2,5.7,11.9,9.2,17.5c5.7,9.2,5.7,9.5-4.4,12.8c-0.6,0.2-1.3,0.4-1.9,0.6
			c-10.7,3.4-11.4,3.7-11.6,15.2c-0.1,7.2-3,12.2-8.1,16.8c-3.8,3.5-7,1.5-10.5,0c-3.4-1.5-3.8-4.1-3.4-7.4
			c0.7-5.1,0.9-10.3,1.5-15.4c0.9-7.2-2.1-13-7-17.4c-15.1-13.8-19.3-31.9-18.8-51.5c0.6-24.5-5.9-48.8-3.3-73.3
			c1.9-18.3,8.9-36,20.1-50.7c4.1-5.4,8.8-10.5,11.2-16.8c3-8.2,1-15.8-2.8-23.2c-3.6-6.9-7.1-13.7,4-16.3c4.6-1.1,9.6-1,12,5.1
			c2.2,5.5,5.8,10.6,7.7,16.2c5.4,15.6-3.8,28.8-11.9,41.2c-9.1,14.1-17.3,29.3-19.9,46.1c-2.1,13.4-0.5,27.1,1.2,40.6
			C593.1,478.7,593.2,479.6,593.6,480.1z M630.2,495.4c-7.2-2.8-13.3-7.8-21.5-7.5c-5.5,0.2-11,0-16.5,0.2c-5.3,0.2-6.5-0.8-6.7-6.1
			c-0.2-6.5,0.3-13.1-0.7-19.4c-3.1-21.1,0.9-40.8,11.4-59.1c4.6-8.1,10.2-15.6,15.1-23.5c9.6-15.6,9.1-28.1-1.8-42.5
			c-1-1.3-4.3-1-6.5-1.4c0.4,1.8,0.5,3.8,1.4,5.3c1.2,2.1,3.9,3.5,4.6,5.7c4.5,13.7,1.3,26.8-7.7,36.9c-13.3,15-19.7,32.5-23.6,51.3
			c-1.3,6.2-1.5,13.1-0.4,19.3c2.6,14.9,4.6,29.8,3.6,45c-0.3,4.3-0.7,8.7-0.4,13c1.1,14.6,3,29.2,14.6,39.6
			c11.5,10.3,14.2,22.6,11.7,37c-0.3,2,0.3,4.2,0.5,6.3c1.9-1.5,4.1-2.7,5.6-4.5c1-1.3,0.9-3.4,1.2-5.2c0.7-4.2,1.3-8.5,2-12.8
			c0.9-5,3.8-7.8,8.8-8.9c3.1-0.7,6.2-2,10.2-3.3C616.2,540,620.3,518.1,630.2,495.4z"/>
		<path class="st2" d="M630.2,495.4c-9.9,22.7-14,44.6,4.9,65.4c-4,1.4-7,2.7-10.2,3.3c-5,1.1-7.9,3.9-8.8,8.9
			c-0.7,4.2-1.3,8.5-2,12.8c-0.3,1.8-0.2,3.9-1.2,5.2c-1.4,1.8-3.7,3-5.6,4.5c-0.2-2.1-0.9-4.3-0.5-6.3c2.5-14.4-0.2-26.8-11.7-37
			c-11.7-10.4-13.5-25.1-14.6-39.6c-0.3-4.3,0.1-8.7,0.4-13c1-15.2-1-30.1-3.6-45c-1.1-6.3-0.9-13.1,0.4-19.3
			c3.9-18.8,10.4-36.4,23.6-51.3c9-10.1,12.2-23.2,7.7-36.9c-0.7-2.2-3.3-3.6-4.6-5.7c-0.9-1.5-0.9-3.5-1.4-5.3
			c2.2,0.4,5.5,0.1,6.5,1.4c10.9,14.4,11.3,26.9,1.8,42.5c-4.9,7.9-10.5,15.4-15.1,23.5c-10.4,18.4-14.5,38-11.4,59.1
			c0.9,6.4,0.5,13,0.7,19.4c0.2,5.4,1.3,6.3,6.7,6.1c5.5-0.2,11,0,16.5-0.2C616.9,487.6,623,492.6,630.2,495.4z"/>
	</g>
</g>
<g id="Layer_3">
	<g>
		<path class="st3" d="M631.9,516.5"/>
		<path class="st3" d="M716.4,537.5c-7.1-0.9-14.1-1.7-21.1-2.5c-0.6-0.1-1.5,0.2-1.8,0.6c-4.1,4.8-8.9,9.1-11.9,14.5
			c-6.5,11.7-14.6,18-28.6,15.6c-7.1-1.2-14.6-2.9-20.6-6.6c-11.4-7.1-12.7-19.4-13.2-31.7c-0.5-10.9,4.6-19.9,10.6-27.9
			c3.6-4.9,10.4-7.5,15.9-10.8c2.2-1.3,5.1-1.6,7.5-2.8c14.3-7.4,25.1,1,35.3,8.7c4.9,3.7,8.2,10,11.3,15.6c2.1,3.7,4.6,6.1,8.4,7.1
			c6.4,1.8,12.9,3.4,19.3,4.8c7.1,1.5,10.2,6.5,11.2,13c0.6,4.2,0.5,8.6,0.4,12.9c-0.1,6.1-0.7,12.3-0.6,18.4c0.1,4.5-1.5,6.7-6,6.5
			c-7-0.5-14.8,1-19.5-6.1c-1.4-2.1-2.4-5.2-2-7.5C712.3,552.3,714.3,545.7,716.4,537.5z M730.7,566.1c0.7-7.6,1.5-14.5,2-21.5
			c0.2-2.5-0.2-5-0.4-7.5c-0.5-4.7-2.8-8.1-7.8-9c-3.3-0.6-6.5-1.3-9.8-2c-9.9-2.1-18.2-5.8-22.7-16.4c-4.8-11-15.1-16.4-26.2-20.1
			c-0.9-0.3-2-0.4-2.9-0.1c-13.6,4.5-27.4,8.2-33.7,23.6c-4.4,10.6-3.9,20.9-0.3,31c4.4,12.3,15.8,13.3,26.6,14.8
			c6.7,1,12.3-1.3,16.4-6.3c5.4-6.6,10.2-13.7,15.5-20.5c1.2-1.6,3-3.8,4.7-3.9c10.6-0.6,21,0.4,30.5,5.7c1.4,0.8,2.5,4,2,5.6
			c-1.7,6.2-4.3,12.1-6.2,18.2c-1.3,4.1,0.4,6.8,4.6,7.5C725.4,565.9,728.1,565.9,730.7,566.1z"/>
		<path class="st3" d="M730.7,566.1c-2.8,0.7-5.1-0.1-7.9-1.1c-2.4-0.9-3.6-1.3-4.4-2.5c-1-1.6-0.5-3.4-0.2-5
			c2.7-12,3-15.4,2.1-18.6c-0.2-0.7-0.6-1.9-1.4-3.1c-4.7-7.1-20-8.3-30-2.8c-10.8,6-7.1,15.4-17.9,23.1c-8.7,6.2-23.1,8.6-33.4,1.7
			c-9.2-6.2-10.8-17.5-11.8-25.3c-0.9-6.2-2.5-17.7,4.6-28.8c0.7-1.1,11.2-17,29.4-16.7c0,0,16,0.4,27.7,15.2
			c5.9,7.5,4.3,9.6,9.5,15c5.8,6.2,14.7,8,23.1,9.4c3.7,0.7,7.8,1.5,10.2,4.5c1.9,2.3,1.7,4.4,2.3,9.6c1.6,14.3,5.2,19.7,1.9,23.2
			C733.1,565.4,731.1,566,730.7,566.1z"/>
	</g>
</g>
<g id="Layer_5">
	<g>
		<path class="st4" d="M294.5,381.3c-2.8-17,1.5-33.4,9.1-48.8c7.8-15.8,16.4-31.2,25-46.6c4.2-7.6,8.8-14.9,13.5-22.2
			c1.6-2.5,3.5-4.9,5.7-6.9c15.6-14.3,31.2-28.6,47-42.7c5.8-5.2,10.6-10.9,14.2-17.8c4.5-8.4,16.1-12.8,24.8-9.6
			c1.7,0.6,3.9,2.6,4.2,4.2c1.6,8.9-0.5,19.3-9.4,23.9C412,223,400,237,386.7,249.1c-11,10-21.2,20.8-31.5,31.4
			c-3,3.1-5.3,6.8-7.5,10.4c-12.5,20.7-19.6,43.4-23.5,67c-2,11.9-3.7,24.1-3.4,36.2c0.2,8.2,3.8,16.3,11.2,21.9
			c7.3,5.5,15,9.5,24,11.7c3.6,0.9,6.7,3.8,10,6c1.1,0.7,1.8,2,2.8,2.8c12.3,10,16.5,23.9,18.2,38.7c1.2,10.4,1.6,20.9,2.3,31.4
			c0.1,2-0.2,4-0.5,6c-1.5,9.5-6.3,15.3-15.3,20.2c-11.3,6.2-22,5.4-33.2,2.6c-3.5-0.9-6.4-4.1-9.7-5.9c-17.6-9.5-21.6-26.5-24-44.1
			c-1.1-7.7-0.6-15.7-1.1-23.5c-0.4-5.8-1.2-11.6-2.2-17.3c-1-5.6-2.5-11.1-4.1-16.5C294.6,412.9,291.8,397.6,294.5,381.3z
			 M312.2,467.4c0.3,6.5,0.2,11.2,0.8,15.8c2,16.5,5.5,32.4,22,41.2c2.6,1.4,4.9,3.9,7.6,4.6c9.6,2.4,18.7,2.5,28.3-2.7
			c8.2-4.3,10.4-10.3,11.4-18.1c0.1-1,0.1-2,0-3c-0.8-10.5-1.1-21-2.5-31.3c-1.7-11.6-4.5-22.9-14.3-30.9c-1.8-1.5-3.1-3.6-4.9-5
			c-2-1.6-4.3-3.4-6.7-3.9c-10.1-2.1-18.6-6.9-26.7-13c-8.7-6.5-12.8-16.2-13.4-25.8c-0.8-12.3,0.7-25,3.3-37.1
			c3.9-18.5,6.4-37.5,16.2-54.3c3.4-5.7,5.9-12,9.1-17.8c1.7-3.2,3.8-6.3,6.4-8.8c10.8-11.1,21.5-22.4,32.9-32.8
			c13.8-12.6,26.3-27.1,43.4-35.8c4.6-2.3,5.9-6.8,6.2-11.8c0.3-4.3-2.1-5.8-5.4-4.8c-4.7,1.5-9.6,3-12,8.1
			c-3.3,7.1-8.3,12.8-14.1,17.9c-9.7,8.4-19.4,16.8-28.7,25.6c-8.2,7.7-17.3,15.1-23.7,24.2c-10.1,14.4-18.3,30.2-27.3,45.4
			c-13.2,22.5-22,46.2-19.9,72.9c0.3,3.3-0.3,6.7-0.1,10c0.5,5.8,0.9,11.6,2,17.3C305.9,432,314.3,449.7,312.2,467.4z"/>
		<path class="st4" d="M698.7,393.7c0,16.1,0.1,28.8,0,41.4c-0.2,14.8-6.9,26.4-17,37.1c-9.1,9.5-20,15.2-32.1,18.1
			c-6.7,1.6-14.2,0-21.3-0.3c-0.7,0-1.6-0.7-2.1-1.3c-5.8-7.6-12.9-14-15.8-23.9c-3.3-11.3-4.3-22.5-3.8-34
			c0.6-15.7,13.6-28.7,29.3-29.5c10.3-0.5,20.6-1,30.8-2.3c7.5-0.9,10.5-5.6,10.9-13c1.3-19.7-2.5-38.6-7.3-57.6
			c-7.3-29.3-16.5-74.4-41.7-93.9c-10.7-8.3-20.2-17.9-28-29.1c-2.2-3.1-5.2-5.5-8-8.2c-5-4.7-7-10.5-6-17.2
			c0.2-1.5,1.6-3.5,2.9-4.1c5.3-2.6,10.8-1.3,14.8,3.1c19.4,21.3,38.8,42.6,58,64c2.2,2.4,3.8,5.5,5.1,8.5
			c11.3,26.2,18.9,53.8,26,81.3c2.4,9.2,2.3,19.2,3,28.8C697.6,373.5,698.2,385.4,698.7,393.7z M691.9,396.7c0.1,0,0.1,0,0.2,0
			c-0.3-5.5-0.5-11-0.9-16.5c-1.2-15.3-0.7-31-4.4-45.7c-6.3-25.2-15.2-49.6-23-74.4c-2.8-8.9-8.4-15.7-14.7-22.3
			c-13.4-14.3-26.5-29-39.7-43.5c-3.4-3.7-6.6-7.5-10.2-10.9c-1.1-1-3.2-0.9-4.9-1.3c-0.2,1.5-1,3.3-0.5,4.5
			c1.1,2.4,2.7,4.5,4.4,6.5c2.4,2.8,5.5,5,7.6,7.9c7.7,11.1,17,20.5,27.6,28.7c9,7,15.1,16.1,19.4,26.2c10.5,24.6,18.7,50,25.4,75.9
			c4.9,18.9,6.8,37.6,6.1,56.8c-0.3,7.1-6.6,15.5-13.6,16.4c-11.2,1.4-22.5,1.8-33.7,3c-16,1.8-22.5,9.4-23.7,24.3
			c-0.8,10.7,0.6,21.1,3.8,31.5c2.4,7.8,8.2,12.8,12.7,18.8c0.4,0.6,1.4,1.1,2.2,1.1c6.6-0.3,13.3,0,19.7-1.3
			c10.4-2.1,18.5-8.4,25.9-15.9c8.4-8.6,14-18.3,14.2-30.4C692.2,423,691.9,409.9,691.9,396.7z"/>
		<path class="st4" d="M312.2,467.4c2-17.7-6.3-35.4-9.8-54c-1.1-5.7-1.5-11.5-2-17.3c-0.3-3.3,0.3-6.7,0.1-10
			c-2.2-26.7,6.6-50.4,19.9-72.9c9-15.2,17.2-31,27.3-45.4c6.4-9.1,15.4-16.5,23.7-24.2c9.4-8.8,19-17.2,28.7-25.6
			c5.9-5.1,10.9-10.8,14.1-17.9c2.4-5.1,7.3-6.7,12-8.1c3.3-1.1,5.7,0.5,5.4,4.8c-0.4,4.9-1.7,9.4-6.2,11.8
			c-17.1,8.8-29.5,23.2-43.4,35.8c-11.4,10.4-22.1,21.7-32.9,32.8c-2.5,2.6-4.6,5.7-6.4,8.8c-3.2,5.8-5.7,12.1-9.1,17.8
			c-9.8,16.8-12.3,35.9-16.2,54.3c-2.6,12.1-4.1,24.8-3.3,37.1c0.6,9.6,4.7,19.2,13.4,25.8c8.1,6.1,16.6,10.9,26.7,13
			c2.4,0.5,4.7,2.3,6.7,3.9c1.8,1.4,3.1,3.5,4.9,5c9.8,8,12.7,19.3,14.3,30.9c1.5,10.4,1.8,20.9,2.5,31.3c0.1,1,0.1,2,0,3
			c-1.1,7.7-3.3,13.7-11.4,18.1c-9.6,5.1-18.6,5.1-28.3,2.7c-2.7-0.7-5-3.2-7.6-4.6c-16.6-8.8-20-24.7-22-41.2
			C312.5,478.6,312.5,473.9,312.2,467.4z"/>
		<path class="st4" d="M691.9,396.7c0,13.2,0.2,26.3-0.1,39.5c-0.2,12.1-5.8,21.8-14.2,30.4c-7.4,7.5-15.5,13.8-25.9,15.9
			c-6.4,1.3-13.1,1-19.7,1.3c-0.7,0-1.7-0.5-2.2-1.1c-4.6-6-10.3-11.1-12.7-18.8c-3.2-10.4-4.6-20.8-3.8-31.5
			c1.2-14.9,7.7-22.5,23.7-24.3c11.2-1.3,22.5-1.6,33.7-3c7-0.9,13.3-9.3,13.6-16.4c0.7-19.2-1.2-37.9-6.1-56.8
			c-6.7-26-14.9-51.3-25.4-75.9c-4.3-10.1-10.4-19.2-19.4-26.2c-10.6-8.2-19.9-17.7-27.6-28.7c-2.1-3-5.2-5.2-7.6-7.9
			c-1.7-2-3.3-4.1-4.4-6.5c-0.5-1.2,0.3-3,0.5-4.5c1.6,0.4,3.8,0.3,4.9,1.3c3.6,3.4,6.9,7.3,10.2,10.9
			c13.2,14.5,26.3,29.2,39.7,43.5c6.2,6.6,11.9,13.5,14.7,22.3c7.8,24.8,16.7,49.3,23,74.4c3.7,14.7,3.1,30.4,4.4,45.7
			c0.4,5.5,0.6,11,0.9,16.5C692.1,396.7,692,396.7,691.9,396.7z"/>
	</g>
</g>
<text transform="matrix(1 0 0 1 828.9473 286.2666)"><tspan x="0" y="0" class="st4 st5 st6">ADL L/R </tspan><tspan x="0" y="28.8" class="st2 st5 st6">RIM L/R</tspan><tspan x="0" y="57.6" class="st0 st5 st6">AVD L/R</tspan><tspan x="0" y="86.4" class="st3 st5 st6">RIH</tspan></text>
</svg>
