<svg width="11" height="13" viewBox="0 0 11 13" fill="none" xmlns="http://www.w3.org/2000/svg">
<path d="M1.41211 3.99609C1.41211 5.16797 2.14453 5.98828 3.53906 6.375L6.48633 7.20703C7.45312 7.48242 7.94531 7.98047 7.94531 8.68359V8.96484C7.13086 9.17578 6.52734 9.91406 6.52734 10.7988C6.52734 11.8359 7.37695 12.6797 8.41992 12.6797C9.46289 12.6797 10.3066 11.8359 10.3066 10.7988C10.3066 9.91406 9.70312 9.17578 8.88867 8.96484V8.68359C8.88867 7.51758 8.16211 6.69727 6.76758 6.31055L3.82031 5.47852C2.85938 5.20898 2.35547 4.69922 2.35547 3.99609V3.7207C3.17578 3.50977 3.77344 2.77148 3.77344 1.88672C3.77344 0.849609 2.92969 0 1.88672 0C0.84375 0 0 0.849609 0 1.88672C0 2.77148 0.603516 3.50977 1.41211 3.7207V3.99609ZM1.88672 2.85938C1.34766 2.85938 0.919922 2.43164 0.919922 1.88672C0.919922 1.3418 1.34766 0.919922 1.88672 0.919922C2.43164 0.919922 2.85352 1.3418 2.85352 1.88672C2.85352 2.43164 2.4375 2.85938 1.88672 2.85938ZM8.41992 9.82617C8.95898 9.82617 9.38672 10.2539 9.38672 10.7988C9.38672 11.3379 8.95898 11.7598 8.41992 11.7598C7.86914 11.7598 7.44727 11.3379 7.44727 10.7988C7.44727 10.2539 7.86914 9.82617 8.41992 9.82617Z" fill="black" fill-opacity="0.3"/>
</svg>
