<svg width="16" height="12" viewBox="0 0 16 12" fill="none" xmlns="http://www.w3.org/2000/svg">
<path d="M9.81641 7.39453H13.7363C14.6504 7.39453 15.1543 6.9082 15.1543 6V2.11523C15.1543 1.20703 14.6504 0.714844 13.7363 0.714844H9.81641C8.90234 0.714844 8.39844 1.20703 8.39844 2.11523V6C8.39844 6.9082 8.90234 7.39453 9.81641 7.39453ZM2.11133 7.34766H5.97852C6.88086 7.34766 7.37891 6.86133 7.37891 5.96484V2.15039C7.37891 1.25391 6.88086 0.767578 5.97852 0.767578H2.11133C1.21484 0.767578 0.722656 1.24805 0.722656 2.15039V5.96484C0.722656 6.86719 1.21484 7.34766 2.11133 7.34766ZM9.82227 6.69141C9.33594 6.69141 9.10742 6.46289 9.10742 5.9707V2.14453C9.10742 1.65234 9.33594 1.42383 9.82227 1.42383H13.7246C14.2168 1.42383 14.4395 1.65234 14.4395 2.14453V5.9707C14.4395 6.46289 14.2168 6.69141 13.7246 6.69141H9.82227ZM1.06836 9.60352C0.880859 9.60352 0.722656 9.76172 0.722656 9.96094C0.722656 10.166 0.880859 10.3242 1.06836 10.3242H2.79688C2.94922 10.875 3.46484 11.2852 4.0625 11.2852C4.66602 11.2852 5.17578 10.875 5.33398 10.3242H14.791C14.9902 10.3242 15.1543 10.166 15.1543 9.96094C15.1543 9.76172 14.9902 9.60352 14.791 9.60352H5.32812C5.16992 9.05273 4.66016 8.64844 4.0625 8.64844C3.46484 8.64844 2.95508 9.05273 2.79688 9.60352H1.06836ZM4.0625 10.6875C3.6582 10.6875 3.3418 10.3652 3.3418 9.96094C3.3418 9.55664 3.6582 9.24609 4.0625 9.24609C4.4668 9.24609 4.7832 9.55664 4.7832 9.96094C4.7832 10.3652 4.4668 10.6875 4.0625 10.6875Z" fill="white" fill-opacity="0.8"/>
</svg>
