<svg width="14" height="12" viewBox="0 0 14 12" fill="none" xmlns="http://www.w3.org/2000/svg">
<path d="M1.72852 11.3057H11.9941C13.1426 11.3057 13.7227 10.7197 13.7227 9.59473V2.41113C13.7227 1.28027 13.1426 0.694336 11.9941 0.694336H1.72852C0.585938 0.694336 0 1.27441 0 2.41113V9.59473C0 10.7256 0.585938 11.3057 1.72852 11.3057ZM1.74023 10.5791C1.08398 10.5791 0.726562 10.2334 0.726562 9.55371V2.44629C0.726562 1.77246 1.08398 1.4209 1.74023 1.4209H11.9824C12.627 1.4209 12.9961 1.77246 12.9961 2.44629V9.55371C12.9961 10.2334 12.627 10.5791 11.9824 10.5791H1.74023ZM5.23828 8.24121H5.82422C6.09375 8.24121 6.2168 8.09473 6.2168 7.87793V4.09277C6.2168 3.88184 6.09375 3.73535 5.82422 3.73535H5.23828C4.97461 3.73535 4.8457 3.88184 4.8457 4.09277V7.87793C4.8457 8.09473 4.97461 8.24121 5.23828 8.24121ZM7.91016 8.24121H8.49609C8.75977 8.24121 8.88281 8.09473 8.88281 7.87793V4.09277C8.88281 3.88184 8.75977 3.73535 8.49609 3.73535H7.91016C7.64648 3.73535 7.51758 3.88184 7.51758 4.09277V7.87793C7.51758 8.09473 7.64648 8.24121 7.91016 8.24121Z" fill="white" fill-opacity="0.8"/>
</svg>
