<svg width="12" height="12" viewBox="0 0 12 12" fill="none" xmlns="http://www.w3.org/2000/svg">
<path d="M6.03125 11.877C9.24805 11.877 11.9082 9.2168 11.9082 6C11.9082 2.77734 9.24805 0.123047 6.02539 0.123047C2.80859 0.123047 0.154297 2.77734 0.154297 6C0.154297 9.2168 2.81445 11.877 6.03125 11.877ZM6.03125 11.1152C3.19531 11.1152 0.916016 8.83008 0.916016 6C0.916016 3.16406 3.19531 0.878906 6.02539 0.878906C8.86133 0.878906 11.1465 3.16406 11.1523 6C11.1523 8.83008 8.86719 11.1152 6.03125 11.1152ZM6.03711 8.26172C7.28516 8.26172 8.29883 7.24805 8.29883 5.99414C8.29883 4.74023 7.28516 3.72656 6.03711 3.72656C4.77734 3.72656 3.76367 4.74023 3.76367 5.99414C3.76367 7.24805 4.77734 8.26172 6.03711 8.26172Z" fill="white" fill-opacity="0.8"/>
</svg>
